<?xml version="1.0" standalone="no"?>
<!DOCTYPE svg PUBLIC "-//W3C//DTD SVG 20010904//EN"
 "http://www.w3.org/TR/2001/REC-SVG-20010904/DTD/svg10.dtd">
<svg version="1.0" xmlns="http://www.w3.org/2000/svg"
 width="800.000000pt" height="800.000000pt" viewBox="0 0 800.000000 800.000000"
 preserveAspectRatio="xMidYMid meet">
<metadata>
Created by potrace 1.11, written by Peter Selinger 2001-2013
</metadata>
<g transform="translate(0.000000,800.000000) scale(0.100000,-0.100000)"
fill="#000000" stroke="none">
<path d="M3758 7805 c-2 -2 -34 -6 -73 -9 -67 -6 -101 -10 -184 -21 -21 -3
-54 -8 -72 -10 -65 -8 -245 -47 -359 -77 -360 -94 -746 -263 -1037 -455 -82
-54 -173 -113 -203 -132 -291 -183 -657 -589 -936 -1040 -208 -334 -387 -802
-449 -1171 -3 -19 -8 -47 -10 -62 -3 -16 -7 -40 -10 -55 -31 -186 -40 -331
-40 -673 0 -271 6 -438 19 -515 3 -16 12 -73 21 -125 61 -381 221 -791 430
-1106 133 -199 227 -307 505 -584 201 -199 292 -283 395 -363 6 -4 24 -19 40
-32 17 -14 34 -25 38 -25 5 0 5 -4 2 -10 -3 -5 3 -10 14 -10 12 0 21 -4 21
-10 0 -5 7 -10 16 -10 8 0 13 -4 10 -9 -3 -5 7 -14 23 -21 16 -6 34 -21 40
-33 8 -16 10 -17 6 -3 -5 16 -3 17 10 6 8 -7 13 -16 10 -20 -3 -5 0 -12 6 -16
8 -4 9 -3 5 4 -4 7 -2 12 3 12 6 0 11 -4 11 -10 0 -5 5 -10 11 -10 7 0 18 -8
26 -17 8 -11 11 -12 7 -3 -7 13 -5 13 9 1 16 -13 14 -36 -3 -26 -5 3 -11 1
-14 -4 -7 -10 13 -9 31 2 14 9 96 -37 86 -48 -5 -4 0 -5 10 -2 11 4 17 1 17
-7 0 -8 11 -14 27 -14 15 0 34 -9 44 -21 9 -11 25 -22 36 -24 10 -2 29 -9 43
-17 14 -8 29 -13 33 -12 5 1 6 -2 2 -8 -3 -5 0 -11 7 -12 7 0 18 -2 23 -3 6 0
26 -10 45 -20 19 -11 38 -19 42 -20 4 0 12 -5 19 -12 6 -6 18 -9 25 -6 8 3 14
0 14 -7 0 -7 7 -10 16 -6 8 3 12 2 9 -4 -3 -6 -1 -10 4 -10 6 0 11 -5 11 -11
0 -8 -4 -8 -14 0 -8 6 -20 10 -27 9 -8 -2 -13 3 -11 11 2 11 0 12 -10 4 -7 -6
-21 -9 -31 -7 -22 3 -36 14 -18 14 7 0 9 5 6 11 -5 6 -13 3 -22 -10 -8 -12
-19 -18 -25 -15 -7 4 -5 10 5 16 17 9 13 38 -5 38 -6 0 -5 -6 2 -15 7 -9 8
-15 2 -15 -5 0 -12 6 -15 14 -3 8 -16 20 -28 26 -12 7 -19 8 -15 2 3 -6 2 -13
-4 -17 -5 -3 -11 -1 -11 4 -3 26 -4 30 -11 36 -3 4 -5 -5 -4 -20 2 -15 -1 -24
-8 -22 -14 5 -15 39 -1 50 6 5 3 7 -7 3 -24 -7 -50 3 -41 17 4 7 -6 2 -22 -11
-15 -12 -31 -20 -34 -16 -3 3 2 11 12 18 9 7 17 17 17 21 0 4 -6 2 -14 -4 -10
-9 -16 -8 -26 4 -7 8 -21 15 -32 15 -10 0 -17 4 -13 9 3 6 -5 15 -17 21 -21
10 -22 10 -5 -4 10 -8 18 -18 17 -23 -1 -4 7 -10 17 -11 24 -5 38 -19 38 -40
0 -11 7 -16 20 -14 16 3 14 -3 -14 -32 -32 -33 -51 -38 -51 -15 0 6 5 7 10 4
6 -3 10 -2 10 2 0 5 -9 14 -20 21 -12 7 -20 8 -20 2 0 -5 5 -10 11 -10 5 0 7
-5 4 -10 -4 -6 -1 -17 5 -25 10 -12 7 -17 -14 -26 -28 -13 -33 -24 -14 -35 7
-4 8 -3 4 4 -4 7 -3 12 1 12 5 0 32 23 61 51 48 46 77 61 56 27 -11 -17 -15
-98 -5 -98 7 0 9 7 13 50 1 12 8 18 15 16 7 -3 10 1 7 9 -4 11 0 13 18 9 12
-3 28 -6 34 -6 6 -1 11 -14 11 -29 0 -18 -5 -25 -14 -22 -7 3 -10 10 -6 16 4
6 1 7 -7 2 -10 -6 -12 -4 -7 8 3 10 2 17 -3 17 -6 0 -10 -9 -10 -21 0 -11 -4
-18 -9 -15 -16 10 -21 -25 -6 -40 8 -9 15 -11 15 -5 0 5 -5 13 -11 17 -8 4 -7
9 2 15 23 14 24 11 26 -38 1 -27 4 -64 7 -83 4 -19 6 -44 7 -55 0 -15 2 -16 8
-6 6 10 10 10 16 2 5 -8 17 -4 41 14 l34 26 -3 -23 c-1 -14 4 -23 16 -26 9 -2
17 1 17 7 0 6 -7 8 -15 5 -8 -4 -15 -2 -15 4 0 16 26 22 39 9 9 -9 11 -7 5 8
-6 16 -4 18 6 8 8 -7 15 -22 17 -34 3 -18 1 -20 -12 -9 -10 9 -15 9 -15 1 0
-6 5 -11 11 -11 5 0 7 -6 3 -12 -4 -7 5 -2 19 11 30 27 33 33 14 25 -8 -3 -14
2 -14 11 0 17 6 19 27 5 12 -7 12 -12 0 -34 -7 -14 -17 -26 -22 -26 -4 0 -8
-5 -8 -11 0 -8 5 -8 15 1 8 7 15 9 15 4 -1 -16 -25 -39 -44 -42 -17 -3 -18 -2
-7 12 8 9 11 19 7 23 -3 3 -6 1 -6 -6 0 -7 -4 -10 -9 -7 -5 4 -8 -2 -7 -11 5
-31 44 -23 67 13 11 18 29 36 39 39 11 4 20 11 20 16 0 6 5 7 10 4 14 -9 -7
-35 -29 -36 -11 0 -12 -2 -3 -6 7 -3 22 3 33 13 10 9 19 13 19 7 0 -13 -62
-64 -69 -57 -3 3 1 9 9 14 9 6 10 10 3 10 -16 0 -26 -17 -18 -31 5 -7 15 -5
30 5 13 9 25 12 28 8 2 -4 2 -1 1 6 -2 6 1 12 6 12 5 0 12 9 15 20 4 11 11 18
16 15 5 -4 2 -19 -7 -36 -8 -17 -13 -34 -9 -37 3 -3 8 4 12 16 3 12 9 19 14
16 5 -3 6 3 2 13 -6 15 -4 16 9 5 15 -12 17 -32 7 -72 -3 -11 3 -14 19 -13 13
2 21 -1 18 -5 -2 -4 0 -14 5 -22 7 -11 8 -8 5 10 -2 18 -9 24 -24 23 -15 -2
-20 2 -16 12 8 19 14 19 44 -1 19 -12 18 -9 -4 10 -16 13 -31 35 -33 47 -3 18
-1 20 12 9 8 -7 13 -15 11 -19 -3 -4 4 -12 15 -19 10 -7 19 -8 19 -3 0 5 -6
11 -12 14 -7 2 -10 8 -5 12 12 13 32 -13 32 -42 0 -14 6 -28 13 -30 6 -3 12 0
12 7 0 6 -4 8 -10 5 -5 -3 -10 0 -10 8 0 24 11 26 31 6 10 -10 25 -19 32 -19
7 0 4 5 -5 11 -10 5 -31 22 -48 38 l-31 28 30 0 c17 0 28 -4 26 -8 -3 -4 -2
-14 1 -23 5 -14 8 -14 29 0 13 9 29 13 35 9 17 -11 11 -23 -9 -18 -10 3 -22 0
-25 -5 -4 -6 2 -8 14 -5 12 3 20 0 20 -6 0 -7 -4 -10 -8 -7 -4 2 -8 -4 -9 -14
-2 -17 24 -36 35 -25 3 2 -2 7 -11 11 -15 5 -15 8 0 31 12 18 18 21 24 11 12
-18 11 -30 -1 -23 -5 3 -10 1 -10 -4 0 -6 4 -11 9 -11 17 0 22 19 12 39 -8 14
-7 22 4 31 11 9 14 8 14 -7 1 -47 4 -52 22 -42 13 7 21 5 28 -8 8 -15 11 -15
12 -3 1 8 0 20 -1 25 -2 6 -2 18 -2 28 1 12 -4 17 -13 13 -8 -3 -12 0 -9 7 2
7 13 13 23 14 14 1 18 -4 16 -22 -3 -32 12 -55 24 -37 4 8 7 24 6 37 -2 13 3
26 10 29 10 3 12 -2 9 -20 -2 -13 0 -24 6 -24 6 0 8 5 4 11 -4 7 -1 10 7 7 8
-3 15 -10 15 -16 1 -7 2 -17 3 -23 0 -6 8 -8 17 -5 10 4 14 2 11 -6 -2 -7 -10
-12 -16 -10 -6 1 -11 -2 -11 -8 0 -5 6 -10 13 -10 8 0 7 -4 -3 -11 -13 -9 -13
-10 0 -6 8 2 14 10 12 16 -2 12 11 15 21 4 4 -3 -3 -17 -15 -30 -12 -13 -19
-23 -15 -23 3 0 17 12 31 26 16 18 28 24 37 18 18 -12 88 -14 94 -4 3 5 -15 7
-40 6 -26 -1 -49 2 -52 6 -3 5 -11 7 -19 4 -9 -4 -18 4 -24 20 -13 32 -13 31
5 31 10 0 14 -7 10 -21 -3 -12 -2 -15 1 -9 4 10 8 10 18 0 9 -8 38 -12 85 -12
48 1 70 -2 68 -9 -2 -6 -11 -10 -19 -8 -9 1 -18 -4 -22 -13 -3 -8 -1 -15 4
-15 6 0 10 5 10 12 0 6 10 2 23 -10 26 -24 37 -28 37 -11 0 5 -3 8 -7 6 -5 -3
-14 1 -20 9 -7 7 -9 15 -4 19 5 3 12 1 16 -4 3 -6 12 -8 20 -4 11 4 14 0 9
-13 -6 -16 -4 -15 13 3 11 13 23 20 27 16 3 -4 -4 -17 -16 -30 -12 -13 -17
-23 -11 -23 6 0 13 5 15 11 2 5 11 7 21 4 9 -4 14 -11 11 -16 -3 -5 -9 -7 -14
-4 -5 3 -14 -5 -20 -17 -11 -22 -11 -22 5 -3 9 11 17 18 18 16 1 -3 11 0 21 6
19 10 18 11 -2 17 -12 4 -22 12 -22 17 0 6 4 8 9 5 5 -3 12 1 15 10 6 15 8 15
25 0 10 -9 22 -16 27 -14 13 4 54 -39 46 -48 -4 -3 3 -1 16 5 13 7 20 17 16
23 -5 7 -1 9 9 5 10 -3 17 -2 17 2 0 10 -30 25 -46 23 -6 -1 -11 5 -11 13 0
19 7 19 36 -2 15 -10 21 -11 16 -3 -5 8 -3 11 5 8 17 -5 22 -39 8 -55 -6 -8
-8 -16 -5 -19 3 -3 12 7 20 22 14 27 14 27 26 6 12 -23 31 -30 31 -11 0 5 -4
7 -10 4 -5 -3 -10 -2 -10 4 0 19 19 21 29 4 10 -17 10 -17 11 1 0 16 2 18 13
7 10 -10 8 -16 -10 -28 -25 -17 -30 -33 -11 -33 6 0 8 3 5 7 -4 3 2 13 13 20
17 12 24 12 36 2 12 -10 19 -8 37 8 24 21 63 28 73 12 4 -6 11 -5 21 2 12 10
16 10 24 -2 14 -22 11 -33 -6 -19 -22 18 -18 3 4 -19 22 -22 34 -8 19 22 -10
19 -3 37 13 37 6 0 8 -4 5 -9 -4 -5 -3 -16 0 -25 8 -21 46 2 39 25 -3 10 1 16
10 16 10 0 14 -6 10 -16 -3 -11 -1 -10 10 3 14 18 16 17 50 -17 19 -19 35 -32
35 -27 0 4 -7 13 -15 20 -25 21 -17 32 9 13 13 -10 22 -22 19 -27 -3 -4 6 0
20 9 15 9 31 14 37 10 5 -3 10 -1 10 5 0 8 -9 10 -26 6 -17 -5 -23 -3 -19 4 4
6 2 17 -4 24 -8 10 -7 17 5 27 13 11 15 11 14 -2 -4 -24 0 -43 6 -36 13 12 43
-13 37 -31 -5 -14 -2 -13 11 3 16 20 16 20 31 1 8 -11 15 -15 15 -10 0 6 -5
15 -12 22 -9 9 -9 12 0 12 6 0 16 -8 21 -17 8 -15 10 -15 11 -3 0 9 9 16 19
17 12 1 18 -3 15 -11 -3 -7 3 -19 12 -27 12 -9 15 -10 10 -1 -7 12 -2 14 34
14 36 0 41 -2 35 -13 -4 -6 2 -5 13 2 12 7 18 17 15 23 -4 5 1 7 10 3 8 -3 21
1 28 9 10 12 15 11 34 -8 12 -13 20 -26 18 -30 -2 -4 4 -5 14 -1 15 6 16 4 6
-8 -10 -13 -10 -16 1 -16 20 0 13 27 -10 40 -24 13 -44 39 -38 49 3 5 1 8 -5
8 -5 0 -11 -4 -13 -8 -1 -4 -11 0 -20 10 -16 16 -15 17 25 14 55 -5 54 -5 39
-14 -7 -5 -10 -16 -6 -25 6 -15 9 -15 34 3 40 29 50 24 15 -7 l-30 -26 28 17
c28 17 30 17 53 -5 13 -12 26 -20 29 -17 3 3 -6 13 -20 22 -14 9 -25 21 -25
27 0 6 12 1 27 -11 l27 -21 11 21 c6 11 14 17 19 13 4 -4 4 1 0 12 -6 17 -3
16 18 -5 17 -16 24 -34 22 -50 -2 -14 -1 -19 2 -12 7 16 25 16 22 0 -2 -8 7
-13 20 -13 12 0 22 4 21 9 0 5 5 13 13 18 10 8 9 9 -3 5 -21 -7 -61 46 -53 67
3 9 10 13 15 10 5 -3 7 -9 4 -14 -6 -10 16 -50 28 -50 4 0 1 10 -8 23 -14 22
-12 37 7 37 4 0 7 -3 7 -7 -4 -22 2 -33 13 -27 7 5 9 2 6 -7 -4 -9 2 -14 17
-15 l22 -2 -24 24 c-13 13 -21 29 -17 36 4 7 12 1 21 -15 8 -16 19 -24 27 -21
9 3 13 -1 13 -12 -1 -9 4 -19 11 -21 6 -3 12 0 12 7 0 6 -5 8 -11 5 -6 -4 -9
0 -7 11 2 13 -3 19 -14 18 -20 -2 -22 4 -8 26 6 10 10 11 10 3 0 -7 9 -13 20
-13 11 0 20 4 20 10 0 5 -8 6 -17 3 -16 -6 -17 -5 -3 11 8 10 16 13 18 8 2 -6
10 -8 18 -5 7 3 17 -2 20 -11 9 -23 33 -20 55 6 10 13 18 18 19 11 0 -6 -4
-14 -10 -18 -5 -3 -7 -12 -4 -20 4 -11 12 -7 31 15 14 17 29 30 35 30 5 0 -2
-14 -16 -31 -14 -17 -26 -38 -26 -47 -1 -14 -5 -12 -21 7 -11 13 -22 22 -24
19 -3 -2 4 -14 16 -26 21 -23 39 -21 39 4 0 8 5 14 12 14 6 0 9 3 5 6 -3 3 2
14 11 24 15 18 16 18 34 -11 10 -16 23 -27 28 -24 6 3 10 8 10 11 0 3 -4 3 -8
0 -5 -3 -16 8 -25 23 -16 27 -16 30 0 42 14 12 15 11 9 -7 -4 -14 -1 -26 9
-34 13 -11 20 -9 40 10 13 12 28 19 34 15 18 -10 12 -25 -6 -18 -14 5 -15 3
-6 -7 15 -16 32 -5 30 20 -1 10 -4 17 -8 14 -4 -2 -11 1 -14 7 -5 7 1 9 16 7
17 -2 23 -8 21 -22 -3 -17 -1 -16 19 3 35 32 46 25 14 -9 -16 -16 -24 -30 -19
-30 5 0 18 11 28 25 17 22 20 23 41 9 13 -8 25 -24 28 -34 3 -13 12 -18 26
-15 19 3 21 0 16 -18 -5 -19 -5 -20 5 -4 14 22 5 37 -21 32 -13 -3 -19 0 -16
8 3 7 10 11 16 9 6 -1 11 3 11 9 0 6 -8 8 -18 5 -19 -6 -92 47 -92 67 0 6 12
-1 28 -15 26 -25 52 -28 52 -6 0 7 -5 6 -14 -2 -12 -9 -15 -8 -13 9 1 13 6 19
14 17 8 -3 10 1 6 12 -6 14 -4 15 8 5 19 -15 18 -51 -2 -64 -9 -5 -10 -9 -2
-9 6 0 15 4 18 10 3 5 11 10 16 10 6 0 7 -4 4 -10 -3 -5 5 -12 19 -16 14 -3
24 -9 23 -13 -1 -3 1 -7 6 -8 15 -6 8 12 -9 22 -21 12 -54 43 -54 51 0 3 5 2
10 -1 6 -3 10 -2 10 2 0 5 -9 14 -20 21 -11 6 -17 18 -14 25 6 18 41 19 41 1
0 -9 -6 -13 -14 -10 -8 4 -11 1 -8 -5 4 -6 13 -8 21 -5 11 4 13 0 9 -17 -5
-17 1 -28 24 -44 25 -19 30 -20 35 -7 3 8 2 12 -4 9 -13 -8 -50 17 -50 35 0
13 1 13 10 0 7 -11 8 -5 5 19 -2 19 -9 37 -14 40 -6 4 -2 12 9 19 20 12 19 16
21 -60 1 -28 6 -38 18 -38 9 0 12 3 6 8 -5 4 -11 16 -13 27 -2 19 -2 19 16 -1
l18 -21 28 23 c15 14 32 22 37 19 5 -4 19 1 31 11 16 12 18 15 5 10 -22 -7
-34 19 -17 38 13 17 52 17 47 1 -2 -5 -11 -9 -20 -7 -8 1 -18 -1 -21 -6 -13
-21 33 -4 72 26 55 44 55 25 0 -22 -24 -20 -38 -36 -33 -36 6 0 27 16 47 36
30 28 37 42 34 65 -2 17 3 36 11 45 8 7 10 14 5 14 -5 0 -16 -10 -24 -22 -14
-22 -15 -21 -15 8 0 24 4 30 23 29 27 0 37 -9 41 -35 3 -22 -13 -28 -19 -8 -3
7 -5 -1 -5 -18 l0 -31 28 31 27 31 26 -24 c14 -14 26 -21 26 -16 0 17 -44 45
-63 39 -12 -4 -17 -2 -13 4 3 6 -1 18 -10 26 -10 11 -11 16 -3 16 6 0 17 -8
24 -17 11 -15 15 -13 41 16 20 23 34 30 46 26 10 -4 15 -12 11 -19 -4 -6 1 -5
10 3 9 7 17 19 17 25 0 8 -3 7 -8 -1 -5 -7 -13 -9 -21 -4 -11 7 -9 10 8 16 11
3 21 11 21 16 0 6 -10 3 -21 -5 -12 -8 -29 -12 -38 -9 -9 4 -13 3 -9 -1 7 -8
-42 -69 -49 -62 -3 2 3 17 12 33 13 22 14 24 1 9 -8 -10 -28 -20 -44 -21 -22
-2 -28 2 -28 19 0 11 5 24 10 28 16 11 -6 10 -23 -1 -9 -6 -10 -11 -2 -15 6
-4 11 -13 11 -19 -1 -7 -9 -2 -19 11 -22 25 -33 29 -25 7 10 -25 -10 -17 -22
9 -10 22 -9 23 25 24 20 1 44 1 55 2 25 1 32 -8 18 -22 -7 -7 -12 -17 -12 -22
0 -6 5 -3 11 7 5 9 15 17 21 17 7 0 6 -5 -2 -15 -8 -9 -8 -15 -2 -15 18 0 20
24 3 44 -15 18 -15 18 7 12 14 -5 22 -3 22 5 0 7 -3 9 -6 6 -4 -3 -16 -1 -28
5 -42 23 -96 17 -75 -8 8 -9 8 -14 1 -14 -6 0 -14 5 -17 10 -4 7 -13 6 -27 -1
-15 -8 -17 -14 -9 -22 6 -6 11 -16 11 -21 -1 -6 -9 -1 -19 11 -10 12 -21 20
-24 16 -4 -3 4 -14 16 -24 12 -10 17 -18 11 -19 -6 0 -17 7 -24 15 -9 11 -17
12 -30 5 -13 -7 -21 -6 -26 2 -4 7 -3 8 4 4 7 -4 12 -2 12 5 0 7 3 9 7 6 3 -4
15 0 25 10 10 9 18 13 18 10 0 -4 23 7 50 23 30 18 50 25 50 17 0 -6 8 -2 18
11 16 21 19 21 40 6 13 -9 26 -13 29 -10 4 3 1 6 -6 6 -7 0 -9 5 -5 12 4 6 3
8 -4 4 -6 -3 -13 -2 -16 2 -3 5 15 18 39 28 25 10 45 22 45 26 0 4 10 13 23
19 21 12 21 11 7 -6 -14 -17 -14 -17 7 -5 12 8 19 18 16 23 -3 4 4 11 16 14
12 3 21 10 21 17 0 6 5 4 10 -4 9 -13 10 -13 10 1 0 18 73 62 84 51 4 -4 6 0
4 8 -2 11 4 14 22 12 16 -1 20 1 12 6 -15 10 43 56 58 47 6 -4 9 -3 8 2 -2 4
0 8 4 8 4 0 15 10 24 23 9 14 22 21 31 18 8 -3 12 -2 9 3 -3 5 11 22 32 37
215 164 474 425 654 661 69 90 218 306 218 317 0 2 18 33 39 68 22 36 71 129
111 207 64 129 73 141 88 129 12 -9 11 -5 -3 11 -20 24 -20 24 0 17 11 -4 16
-4 12 0 -4 4 -1 14 6 22 9 13 9 14 0 8 -7 -4 -13 -3 -13 2 0 6 7 12 15 16 8 3
12 12 9 21 -4 10 0 15 12 15 15 0 16 2 5 9 -10 6 -10 10 -1 16 6 4 9 13 6 21
-3 8 -1 14 5 14 6 0 7 5 4 10 -3 5 -1 10 6 10 7 0 9 3 6 7 -4 3 -2 12 4 20 6
7 8 13 3 13 -5 0 -2 5 6 10 10 7 11 10 2 10 -8 0 -9 5 -3 18 12 21 23 52 27
73 2 9 9 29 15 45 7 16 14 37 16 47 2 10 17 72 33 137 30 119 74 358 84 460
22 207 35 514 23 526 -3 3 -2 17 3 30 5 13 6 24 1 24 -4 0 -8 7 -8 15 0 8 5
15 11 15 6 0 5 4 -2 9 -8 4 -13 11 -12 15 2 3 -1 39 -4 79 -26 265 -75 515
-143 737 -15 47 -27 87 -28 90 -20 92 -179 451 -270 610 -21 36 -46 81 -57
100 -11 19 -54 85 -94 146 -230 343 -568 691 -909 934 -486 346 -1102 581
-1690 646 -33 4 -76 8 -95 11 -41 5 -558 12 -562 8z m-1448 -6807 c0 -5 4 -7
8 -4 4 2 8 -4 8 -14 0 -11 -2 -17 -5 -15 -2 3 -13 -2 -23 -12 -10 -9 -18 -11
-18 -5 0 6 7 15 16 20 15 8 14 11 -5 24 -11 8 -18 17 -15 21 8 8 34 -3 34 -15z
m3380 12 c0 -5 -4 -10 -10 -10 -5 0 -10 5 -10 10 0 6 5 10 10 10 6 0 10 -4 10
-10z m35 0 c3 -5 -1 -10 -10 -10 -9 0 -13 5 -10 10 3 6 8 10 10 10 2 0 7 -4
10 -10z m-3310 -49 c7 -12 -12 -24 -25 -16 -11 7 -4 25 10 25 5 0 11 -4 15 -9z
m3138 -10 c13 8 19 6 23 -5 4 -12 17 -15 49 -11 30 2 48 -1 56 -11 8 -10 8
-14 0 -14 -6 0 -11 5 -11 11 0 6 -9 1 -21 -12 -16 -18 -19 -20 -15 -6 3 11 2
16 -4 12 -6 -3 -10 0 -10 7 0 10 -2 10 -9 0 -4 -8 -12 -14 -16 -14 -4 0 -12 6
-17 14 -6 9 -7 5 -3 -12 7 -24 6 -24 -11 -8 -15 15 -15 19 -3 35 13 16 12 17
-4 4 -10 -8 -15 -21 -12 -32 4 -13 1 -16 -12 -14 -10 2 -20 4 -23 4 -3 1 2 6
10 11 13 8 12 12 -4 27 -14 12 -16 13 -8 2 12 -16 7 -29 -10 -29 -5 0 -7 4 -3
9 3 5 0 13 -6 17 -17 10 12 24 31 14 9 -5 23 -4 33 1z m-3127 -19 c-2 -4 -1
-14 4 -22 7 -12 11 -12 26 1 16 12 17 12 11 -3 -4 -11 0 -21 11 -27 14 -9 14
-10 2 -11 -9 0 -22 6 -28 12 -10 10 -15 10 -22 -2 -5 -8 -10 -12 -11 -7 -1 4
-3 12 -4 17 -1 6 -3 14 -4 20 0 5 -8 7 -16 4 -8 -4 -15 -1 -15 4 0 6 8 13 18
15 28 8 33 7 28 -1z m3061 -10 c-1 -4 8 -17 21 -30 12 -12 20 -28 16 -33 -4
-8 -9 -7 -15 2 -4 7 -5 17 -2 23 3 5 1 6 -5 2 -6 -4 -8 -14 -5 -23 6 -15 5
-16 -9 -3 -9 8 -14 23 -13 32 2 9 -3 19 -11 22 -8 3 -13 2 -9 -3 3 -5 -3 -8
-12 -7 -22 3 -54 -15 -47 -26 3 -4 0 -8 -5 -8 -6 0 -11 3 -11 8 0 11 20 38 20
27 0 -6 3 -6 8 0 17 25 87 39 79 17z m-2987 -26 c0 14 28 14 34 -1 4 -11 -9
-12 -57 -6 -5 1 -5 6 -1 12 4 8 9 7 15 -2 5 -8 9 -9 9 -3z m124 -8 c4 7 13 9
19 5 7 -4 14 -8 17 -9 37 -11 50 -18 50 -25 0 -5 11 -16 25 -25 19 -13 28 -14
39 -5 9 8 16 8 20 2 4 -6 13 -8 20 -5 8 3 17 0 21 -5 3 -6 11 -9 16 -6 5 4 12
-1 15 -9 3 -9 10 -16 16 -16 5 0 6 6 2 13 -6 9 -5 9 8 0 8 -7 18 -9 22 -5 4 4
7 3 6 -3 -5 -21 1 -29 9 -16 8 13 12 13 27 0 9 -8 19 -13 21 -11 9 6 33 1 33
-8 0 -12 -22 -9 -32 5 -5 6 -8 5 -8 -4 0 -8 -6 -11 -17 -7 -11 5 -9 -1 7 -16
14 -13 27 -20 28 -15 2 4 8 4 14 1 6 -4 5 -10 -3 -16 -11 -7 -10 -8 4 -4 12 4
16 2 11 -6 -4 -6 3 -4 16 5 18 12 27 14 37 5 10 -8 17 -8 26 1 9 10 8 11 -5 6
-11 -4 -18 -2 -18 4 0 6 3 10 8 10 4 -1 9 0 12 1 18 7 39 7 35 0 -3 -5 -1 -11
5 -15 5 -3 11 2 11 12 1 17 2 17 6 0 4 -15 7 -16 19 -6 12 10 18 8 30 -9 8
-12 20 -22 26 -22 7 0 6 5 -1 14 -10 12 -9 14 6 11 10 -2 18 -4 18 -5 0 -3 40
-12 61 -13 19 -1 31 -27 12 -27 -5 0 -6 -5 -2 -12 5 -7 3 -8 -6 -3 -8 5 -11 4
-6 -3 3 -6 1 -14 -5 -18 -7 -4 -9 -3 -6 3 3 5 0 10 -8 10 -8 0 -15 -4 -15 -9
0 -4 -5 -8 -11 -8 -8 0 -7 6 2 17 12 14 12 16 0 8 -10 -6 -12 -4 -6 6 5 8 5
11 0 7 -4 -4 -14 -3 -21 3 -8 7 -14 7 -19 -1 -3 -5 -11 -10 -17 -10 -7 0 -6 6
2 15 7 8 10 15 6 15 -3 0 -8 0 -11 0 -3 0 -5 -3 -6 -7 0 -5 -6 -14 -12 -22 -9
-12 -9 -13 0 -7 8 4 12 2 10 -6 -2 -7 -2 -10 0 -5 11 18 23 5 12 -14 -9 -17
-8 -20 2 -14 8 6 10 4 4 -5 -5 -8 -4 -11 3 -6 6 4 8 14 5 24 -6 15 -5 15 10 3
9 -7 14 -18 10 -25 -3 -6 0 -6 8 2 17 16 32 16 22 0 -4 -7 5 -5 20 5 18 11 27
13 27 6 0 -7 3 -9 7 -6 3 4 13 1 22 -6 14 -10 14 -10 3 5 -12 15 -11 17 7 15
14 -1 20 -6 16 -15 -2 -7 0 -10 5 -7 14 9 12 -8 -2 -25 -11 -12 -10 -12 5 -1
11 9 15 21 12 35 -4 15 -1 13 10 -7 9 -15 14 -31 11 -36 -8 -12 -51 -5 -48 8
1 6 -2 12 -8 12 -20 3 -25 4 -37 12 -7 5 -13 4 -13 0 0 -5 -24 -9 -52 -8 -46
1 -55 4 -68 28 -8 15 -19 27 -23 27 -5 0 -5 -5 -1 -12 4 -6 3 -8 -4 -4 -6 3
-15 -1 -20 -10 -6 -11 -11 -13 -16 -5 -4 6 -1 11 6 11 8 0 6 5 -5 11 -9 6 -14
15 -11 21 5 7 1 9 -9 5 -12 -4 -14 -2 -10 10 5 12 2 15 -9 11 -9 -4 -21 -1
-27 5 -9 9 -11 8 -6 -5 4 -11 2 -18 -5 -18 -6 0 -8 5 -5 10 9 14 -8 12 -24 -2
-11 -10 -13 -10 -7 0 4 6 3 12 -2 12 -8 0 -32 -42 -32 -57 0 -3 8 -2 17 1 10
4 14 4 11 0 -4 -4 -2 -16 4 -28 8 -17 8 -19 -2 -9 -7 6 -19 9 -26 6 -8 -3 -14
-1 -15 3 0 5 -2 21 -4 37 -2 15 0 25 5 22 5 -3 12 0 16 6 4 7 3 9 -4 5 -7 -4
-9 4 -7 25 3 24 1 30 -11 25 -10 -4 -13 -2 -8 6 5 7 3 8 -6 3 -9 -6 -11 -4 -5
4 6 10 3 11 -15 1 -18 -10 -21 -9 -15 1 5 8 4 10 -3 5 -8 -4 -10 -2 -6 7 9 24
-15 31 -37 11 -23 -21 -37 -11 -18 13 9 11 10 14 2 9 -9 -5 -11 -2 -7 8 7 17
-11 22 -21 6 -11 -17 -27 -11 -21 8 4 11 -1 8 -12 -7 -20 -24 -48 -21 -38 4 3
9 -2 12 -15 10 -17 -3 -24 6 -20 28 0 4 -2 7 -6 8 -5 0 -16 2 -26 4 -11 2 -15
-1 -10 -8 4 -7 -2 -5 -13 3 -18 14 -18 14 -5 -5 8 -11 2 -8 -13 8 -24 25 -55
30 -41 6 4 -5 2 -9 -3 -9 -19 0 -20 13 -4 35 14 19 18 20 23 7 4 -11 8 -12 13
-4z m2998 7 c12 -16 9 -30 -4 -17 -7 7 -17 12 -22 12 -6 0 -3 -5 7 -11 9 -5
17 -15 17 -21 0 -7 -4 -7 -13 1 -10 8 -17 7 -25 -1 -15 -15 -15 -6 -1 26 12
25 28 29 41 11z m-3222 -10 c-7 -9 -15 -13 -17 -11 -7 7 7 26 19 26 6 0 6 -6
-2 -15z m170 0 c-1 -6 -12 -17 -26 -25 -20 -12 -26 -13 -33 -2 -7 11 -9 10
-15 -3 -3 -10 -11 -13 -18 -9 -9 5 -8 2 1 -9 8 -10 12 -20 9 -22 -3 -3 -11 2
-19 11 -11 14 -10 18 11 34 13 10 32 16 42 15 11 -2 22 3 25 11 6 16 25 15 23
-1z m2805 -10 c-4 -32 10 -32 30 -1 9 13 24 23 33 21 9 -2 21 -4 25 -4 5 -1 6
-5 3 -9 -7 -11 8 -33 25 -35 21 -4 39 -17 39 -29 0 -7 -5 -7 -14 1 -7 6 -21 8
-30 5 -9 -4 -16 -3 -15 2 4 16 -13 44 -32 54 -15 8 -17 7 -14 -9 2 -11 -3 -22
-11 -25 -10 -4 -12 -2 -8 6 4 7 3 8 -5 4 -6 -4 -9 -11 -6 -16 3 -4 -2 -14 -11
-21 -14 -11 -15 -10 -12 7 2 14 -2 19 -19 18 -13 -1 -21 1 -19 5 2 3 -7 7 -21
8 -15 0 -21 -2 -14 -6 9 -6 8 -11 -3 -20 -9 -7 -21 -9 -28 -5 -28 18 -40 13
-21 -9 16 -19 16 -20 1 -8 -17 12 -23 9 -19 -12 1 -5 -2 -6 -7 -3 -4 2 -14 1
-22 -5 -11 -6 -12 -9 -2 -9 7 0 10 -5 7 -11 -5 -6 -12 -4 -21 8 -7 10 -14 13
-14 7 0 -5 6 -16 13 -23 6 -7 8 -12 2 -11 -20 4 -36 0 -31 -8 2 -4 0 -14 -6
-22 -8 -13 -9 -12 -5 1 7 21 -30 20 -43 -1 -5 -8 -10 -10 -10 -4 0 5 6 16 13
24 9 11 8 11 -8 0 -19 -14 -19 -14 -6 3 8 9 11 20 7 24 -3 3 -6 1 -6 -6 0 -7
-4 -10 -9 -6 -5 3 -12 1 -15 -4 -6 -9 -23 -10 -41 0 -5 3 -16 4 -22 3 -7 -1
-18 -2 -24 -3 -5 0 3 -13 18 -27 15 -14 22 -22 14 -18 -10 5 -12 3 -6 -6 6 -9
4 -11 -5 -5 -9 6 -11 4 -5 -5 5 -9 4 -11 -4 -6 -6 4 -9 12 -6 17 4 5 1 9 -5 9
-7 0 -9 -7 -6 -16 3 -9 2 -12 -5 -9 -6 4 -8 13 -6 20 4 8 -3 12 -16 11 -13 -1
-21 4 -19 12 1 8 -2 11 -8 7 -6 -3 -7 -11 -4 -17 5 -7 2 -8 -6 -3 -9 6 -11 4
-5 -5 6 -9 4 -11 -5 -5 -9 5 -11 4 -6 -4 5 -7 2 -10 -6 -9 -7 2 -12 -3 -10
-11 3 -12 0 -12 -12 -1 -9 7 -16 8 -16 3 0 -6 10 -15 23 -21 22 -11 22 -11 -3
-7 -14 2 -29 4 -33 4 -4 1 -3 10 3 20 9 17 7 19 -10 16 -11 -2 -20 0 -20 6 0
5 -5 9 -11 9 -8 0 -7 -6 2 -17 12 -14 12 -16 0 -8 -9 5 -12 4 -7 -3 7 -11 -19
-11 -30 1 -4 4 -14 1 -22 -6 -13 -10 -14 -9 -8 1 9 15 -15 12 -26 -3 -5 -6 -8
-3 -8 6 0 20 27 33 36 17 4 -7 9 -7 13 1 4 6 17 13 29 16 12 2 27 7 34 11 7 4
8 3 4 -4 -4 -7 -2 -12 3 -12 6 0 11 6 11 13 0 8 4 7 10 -3 9 -13 14 -8 11 12
0 3 7 5 17 3 9 -1 22 0 27 4 13 7 36 12 58 12 9 0 17 4 17 7 0 4 8 9 18 10 31
3 47 7 59 15 21 13 52 16 58 6 4 -5 11 -6 17 -3 6 4 5 10 -3 15 -11 7 -10 9 4
10 30 3 35 4 43 12 15 15 25 6 19 -15 -7 -23 -7 -23 8 -3 8 11 13 24 10 30 -4
5 -3 7 2 3 4 -4 13 -3 20 2 6 5 20 11 31 13 10 2 30 9 44 14 14 6 28 9 33 6 4
-2 10 3 13 11 10 26 32 19 29 -9z m-3005 0 c0 -17 16 -20 25 -5 7 11 25 4 25
-10 0 -5 -6 -7 -14 -4 -7 3 -20 -6 -29 -20 -12 -18 -13 -26 -4 -29 6 -2 9 -8
5 -12 -11 -12 -20 0 -23 30 -2 14 2 25 8 25 8 0 7 4 -1 12 -15 15 -16 28 -2
28 6 0 10 -7 10 -15z m3200 8 c0 -3 -7 -14 -16 -24 -17 -19 -10 -43 9 -36 7 2
18 -3 25 -12 10 -14 11 -13 5 4 -6 19 -6 19 14 2 16 -14 22 -15 26 -5 2 7 8 9
13 5 13 -13 -18 -27 -48 -22 -21 4 -32 -2 -51 -26 -14 -18 -29 -29 -36 -25
-17 11 -13 24 6 22 13 -1 18 7 19 29 0 17 -3 36 -9 42 -6 9 -4 15 7 19 9 3 16
12 16 20 0 8 5 14 10 14 6 0 10 -3 10 -7z m90 -3 c0 -5 -5 -10 -10 -10 -6 0
-5 -8 2 -20 9 -14 15 -16 21 -7 6 9 7 8 5 -3 -5 -16 -65 -23 -74 -9 -3 5 -10
7 -15 4 -5 -4 -9 -2 -9 4 0 18 19 22 28 5 7 -13 11 -11 22 15 12 30 30 42 30
21z m-3206 -34 c-3 -15 -1 -25 8 -28 24 -10 33 -8 33 7 0 8 4 15 8 15 29 0 29
0 18 -13 -6 -8 -7 -18 -3 -22 4 -5 1 -5 -7 0 -9 5 -12 4 -7 -3 9 -15 -32 -6
-53 11 -9 8 -22 12 -29 10 -10 -4 -10 2 3 26 18 35 38 33 29 -3z m192 -35 c-4
-5 -13 -8 -21 -5 -8 4 -12 10 -9 15 3 5 10 6 16 3 7 -4 8 -2 4 5 -6 9 -11 9
-22 0 -8 -6 -14 -8 -14 -3 0 5 -5 1 -11 -9 -7 -12 -15 -15 -27 -8 -9 4 -23 6
-30 3 -10 -3 -9 3 3 22 20 29 33 33 41 11 5 -12 10 -13 20 -4 8 6 11 16 8 23
-4 6 6 -1 21 -15 15 -15 25 -32 21 -38z m2810 42 c9 -15 5 -22 -23 -40 -20
-14 -33 -17 -33 -10 0 8 -3 7 -9 -2 -5 -8 -14 -10 -21 -6 -8 5 -11 4 -7 -2 3
-5 0 -10 -7 -10 -9 0 -12 7 -8 15 4 11 1 14 -10 10 -9 -4 -21 -1 -28 5 -10 9
-11 9 -5 -2 6 -10 4 -12 -5 -6 -8 5 -11 4 -6 -3 3 -6 15 -9 26 -7 12 2 17 -1
14 -10 -6 -16 -36 -13 -42 3 -2 7 -8 9 -14 6 -6 -4 -5 -10 3 -15 9 -6 3 -8
-18 -4 -17 3 -35 1 -38 -5 -3 -6 1 -7 9 -4 9 3 16 1 16 -5 0 -6 -3 -10 -7 -10
-20 3 -34 -2 -28 -11 3 -6 -1 -7 -12 -4 -17 5 -17 5 -1 -6 17 -11 14 -40 -4
-40 -6 0 -7 7 -4 16 3 8 2 13 -3 9 -5 -3 -12 1 -15 7 -3 7 -3 2 0 -12 4 -18 3
-21 -4 -11 -8 11 -11 9 -17 -9 -4 -12 -8 -29 -9 -37 -1 -8 -8 -18 -15 -23 -8
-4 -9 -10 -3 -14 9 -5 27 21 24 36 -1 3 5 9 13 12 22 8 18 -9 -9 -41 -19 -22
-27 -25 -37 -16 -10 10 -9 15 1 28 8 10 9 15 1 15 -6 0 -11 5 -11 11 0 5 4 8
9 5 13 -8 21 18 11 35 -5 7 -12 10 -17 6 -4 -5 -2 -12 6 -16 10 -7 10 -9 -2
-14 -9 -3 -18 1 -21 9 -3 8 -11 13 -18 12 -8 -2 -12 5 -10 17 2 16 1 17 -7 5
-5 -8 -7 -18 -4 -24 4 -5 0 -7 -9 -4 -8 4 -15 1 -15 -5 0 -7 -2 -16 -3 -22 -5
-21 0 -36 11 -29 6 4 7 9 2 13 -5 3 0 15 11 25 19 19 19 19 14 -2 -4 -12 -1
-25 4 -29 6 -3 8 -1 5 4 -4 6 0 13 8 17 8 3 15 2 15 -3 0 -13 -26 -32 -34 -24
-3 4 -21 -7 -38 -23 -18 -16 -27 -22 -20 -13 13 17 7 49 -10 49 -5 0 -7 -4 -4
-9 8 -12 -31 -44 -43 -36 -6 3 -11 11 -11 16 0 6 4 8 9 5 16 -11 37 4 38 27
l1 22 -10 -22 c-6 -13 -15 -23 -20 -23 -12 0 -10 14 5 29 10 11 9 12 -2 6 -10
-6 -12 -4 -6 5 5 9 4 11 -4 6 -6 -4 -19 -2 -28 6 -14 11 -16 11 -8 -1 6 -10 4
-12 -6 -6 -8 5 -3 -4 11 -19 l25 -28 -26 3 c-14 2 -34 -3 -44 -11 -17 -13 -18
-13 -13 2 5 11 2 15 -10 13 -9 -1 -20 3 -24 9 -5 7 -8 6 -8 -4 0 -11 -3 -11
-8 -3 -5 8 -14 6 -32 -8 -24 -20 -24 -20 -2 -9 24 12 38 8 28 -8 -14 -23 -66
2 -66 33 0 6 5 3 10 -5 7 -11 10 -11 10 -2 0 7 4 11 9 7 5 -3 12 -2 15 3 6 10
-55 9 -72 -1 -7 -5 -15 -2 -18 8 -4 9 -13 14 -21 11 -9 -4 -12 -2 -7 7 6 9 5
9 -8 0 -8 -7 -19 -9 -23 -5 -5 4 -5 2 -1 -5 4 -8 0 -11 -14 -8 -11 2 -24 -3
-30 -13 -5 -9 -10 -12 -10 -6 0 8 -65 12 -65 4 0 -8 -42 -6 -53 2 -10 9 -12 8
-10 -2 2 -7 -3 -15 -10 -17 -6 -3 -10 1 -9 9 2 7 2 9 -1 4 -2 -4 -8 -3 -12 4
-5 8 -9 7 -13 -5 -5 -11 -3 -14 6 -9 9 5 8 3 -1 -7 -11 -12 -14 -12 -21 0 -6
9 -11 10 -15 2 -4 -6 -2 -11 4 -11 6 0 9 -4 5 -9 -3 -5 -1 -12 5 -16 6 -4 7
-11 4 -17 -4 -7 -2 -8 4 -4 7 4 12 2 12 -4 0 -15 -35 -8 -36 8 -1 6 -2 19 -3
27 0 8 -5 15 -11 15 -11 0 -9 -22 2 -30 4 -3 -5 -14 -21 -23 -25 -15 -30 -15
-41 -2 -11 13 -9 15 8 13 11 -2 21 1 21 6 -1 5 5 12 11 16 9 5 9 9 1 14 -6 4
-11 2 -11 -3 0 -6 -5 -11 -11 -11 -8 0 -7 6 2 17 12 14 12 16 0 8 -10 -6 -12
-4 -7 6 4 8 -1 4 -12 -8 -21 -24 -39 -19 -19 5 7 10 8 13 1 9 -7 -4 -18 1 -25
11 -11 14 -11 15 1 5 11 -10 17 -10 29 0 12 9 13 9 7 0 -4 -7 -2 -13 3 -13 6
0 11 6 11 13 0 8 4 7 10 -3 8 -13 10 -13 10 -1 0 11 4 9 14 -5 8 -10 18 -16
22 -11 4 4 2 7 -4 7 -7 0 -12 5 -12 11 0 5 5 7 10 4 6 -3 10 -1 10 6 0 7 7 4
16 -7 11 -14 14 -15 11 -3 -4 12 1 15 21 14 15 -1 32 1 37 4 17 9 35 10 41 0
3 -5 10 -9 15 -9 6 0 7 5 4 10 -3 6 -1 10 4 10 6 0 11 -4 11 -10 0 -5 4 -10
10 -10 5 0 9 5 7 12 -1 7 7 12 18 12 11 0 23 5 27 11 5 6 8 5 8 -4 0 -9 4 -10
13 -4 6 5 19 9 27 8 8 -1 23 3 34 8 12 6 16 6 12 -1 -10 -16 14 -26 68 -27 35
-1 55 4 64 15 12 13 13 13 8 -2 -6 -21 8 -31 50 -33 l33 -3 -17 27 c-9 14 -12
23 -7 18 4 -4 17 1 28 10 24 22 24 22 42 -4 16 -23 34 -24 59 -4 15 13 15 16
-5 37 -19 20 -19 22 -3 19 11 -2 20 -4 22 -5 8 -7 29 -5 42 4 8 6 12 7 8 2 -4
-5 -2 -18 4 -29 10 -20 11 -20 24 -2 14 18 14 18 28 0 14 -19 15 -19 27 7 6
15 15 25 20 23 11 -7 40 25 33 36 -3 5 0 8 8 7 7 -2 12 3 10 11 -3 12 0 12 13
1 21 -17 31 -5 14 17 -13 16 -12 17 4 4 14 -11 20 -11 34 0 21 18 77 21 62 3
-17 -20 17 -25 36 -4 9 10 23 16 31 13 9 -3 12 2 9 16 -5 26 6 27 21 4z
m-2692 -15 c-3 -5 -12 -4 -20 3 -19 16 -18 18 6 12 11 -3 17 -9 14 -15z m-354
2 c0 -5 -6 -10 -12 -10 -7 0 -5 -5 5 -11 10 -6 21 -8 24 -5 3 3 17 -3 31 -14
13 -11 29 -17 35 -13 6 4 8 0 4 -10 -4 -11 -2 -14 8 -10 8 3 13 9 10 14 -9 13
29 29 45 19 9 -5 19 -5 27 1 8 7 18 7 32 0 17 -9 24 -6 45 22 24 30 31 27 27
-10 -1 -6 6 -10 16 -9 10 2 25 -6 34 -18 13 -16 20 -18 31 -8 8 6 18 9 21 5 4
-3 13 0 21 6 13 11 14 9 10 -13 -5 -31 12 -43 35 -22 22 20 35 21 28 2 -6 -16
16 -40 26 -29 4 3 13 1 20 -5 8 -7 16 -10 18 -7 3 2 5 -5 5 -15 0 -11 -10 -32
-22 -47 -18 -23 -24 -25 -37 -15 -8 7 -19 12 -23 10 -5 -1 -19 3 -31 10 -12 6
-29 9 -37 6 -11 -4 -16 -1 -16 10 0 9 5 16 11 16 5 0 7 -5 3 -12 -4 -7 -3 -8
5 -4 6 4 8 12 5 18 -5 7 -1 9 9 5 20 -8 43 18 26 29 -7 4 -15 2 -17 -4 -6 -20
-21 -13 -17 8 2 11 1 19 -3 19 -19 -3 -25 2 -12 11 12 7 10 9 -7 7 -17 -1 -19
-4 -11 -14 18 -22 3 -24 -20 -3 -21 20 -21 20 -27 0 -4 -11 -11 -18 -16 -14
-5 3 -6 11 -2 17 13 20 12 35 -2 41 -9 3 -12 0 -9 -8 3 -8 1 -17 -5 -20 -6 -4
-8 -13 -4 -21 4 -11 1 -13 -11 -9 -15 6 -15 9 -1 30 15 23 14 25 -1 23 -4 0
-10 5 -14 11 -5 9 -10 6 -15 -9 -6 -20 -7 -20 -33 -3 -14 9 -23 12 -19 5 4 -6
3 -14 -3 -18 -5 -3 -10 -2 -10 2 0 5 -9 9 -20 10 -11 1 -20 -4 -20 -10 0 -7
-4 -6 -10 3 -5 8 -10 10 -10 4 0 -6 8 -18 17 -25 10 -8 14 -9 10 -2 -4 6 -2
15 4 18 7 5 10 1 7 -10 -3 -19 -45 -29 -54 -13 -3 4 -13 4 -24 -2 -13 -7 -21
-5 -31 7 -12 15 -12 16 4 10 11 -4 16 -3 12 4 -4 6 -13 8 -21 5 -8 -3 -17 1
-20 8 -5 12 -10 12 -34 -2 -23 -13 -26 -19 -16 -34 6 -10 15 -18 20 -18 4 0 3
7 -4 15 -7 9 -9 19 -5 23 4 4 10 1 12 -5 3 -7 9 -13 15 -13 6 0 6 6 -2 15 -7
8 -8 15 -2 15 5 0 15 -6 21 -14 9 -11 6 -18 -18 -35 l-30 -21 -15 22 c-20 29
-20 44 0 52 9 4 14 13 10 21 -3 8 -3 22 0 30 7 17 24 20 24 5z m3160 0 c0 -5
-4 -10 -10 -10 -5 0 -10 5 -10 10 0 6 5 10 10 10 6 0 10 -4 10 -10z m-55 -29
c3 0 -2 -12 -11 -26 -13 -20 -14 -28 -4 -40 7 -9 21 -13 31 -10 9 3 20 1 24
-5 4 -7 1 -10 -6 -9 -20 4 -59 -11 -59 -22 0 -5 -4 -9 -9 -9 -5 0 -8 11 -8 25
0 20 2 23 13 14 20 -16 17 -4 -3 16 -14 14 -14 18 -2 27 12 8 12 9 -1 5 -8 -2
-14 -12 -14 -21 1 -9 -3 -16 -8 -16 -6 0 -5 -6 2 -15 8 -10 9 -15 2 -15 -17 0
-33 35 -21 47 5 5 11 19 14 31 3 16 0 19 -13 15 -10 -4 -12 -8 -4 -11 7 -2 9
-8 6 -14 -4 -6 -10 -5 -15 3 -6 10 -9 10 -9 2 0 -22 -53 -40 -107 -37 -29 2
-54 0 -57 -5 -9 -14 24 -22 45 -11 30 17 44 1 20 -22 -12 -10 -19 -23 -16 -29
9 -14 -11 -11 -24 4 -6 8 -8 17 -4 21 4 4 -1 4 -11 0 -13 -5 -17 -4 -12 4 5 8
2 10 -9 5 -10 -3 -13 -8 -6 -12 17 -11 18 -56 2 -56 -8 0 -16 6 -19 13 -2 8 3
10 15 6 11 -4 14 -3 6 3 -16 11 -23 56 -12 74 5 8 9 10 9 4 0 -5 6 -3 13 5 14
17 39 20 49 5 5 -6 8 -5 8 3 0 14 21 12 32 -3 4 -6 8 -2 8 8 0 10 5 15 10 12
6 -4 7 -11 4 -17 -4 -7 -2 -8 5 -4 6 4 9 12 6 17 -4 5 -1 9 4 9 20 0 26 2 47
19 16 13 61 19 89 12z m-2841 -45 c-18 -26 -18 -36 1 -36 8 0 15 -4 15 -10 0
-14 -23 -8 -36 9 -9 12 -18 8 -49 -23 -20 -21 -40 -34 -43 -31 -4 4 0 12 10
19 12 9 14 16 7 29 -7 11 -6 23 0 35 6 9 11 13 11 9 0 -4 9 -3 19 3 14 7 22 7
27 -2 5 -7 3 -8 -6 -3 -9 5 -11 4 -6 -3 5 -9 12 -9 26 0 10 7 17 15 15 18 -2
4 2 7 10 7 12 0 12 -4 -1 -21z m2856 14 c0 -5 -4 -10 -10 -10 -5 0 -10 5 -10
10 0 6 5 10 10 10 6 0 10 -4 10 -10z m-2484 -29 c23 4 44 -2 44 -13 0 -6 -3
-9 -6 -5 -4 3 -19 0 -34 -8 -24 -13 -30 -13 -40 0 -7 8 -16 13 -20 10 -5 -3
-11 -1 -15 4 -3 6 4 8 15 6 13 -2 23 2 27 11 4 11 8 12 13 4 4 -6 11 -10 16
-9z m-271 -44 c-5 -22 -5 -22 6 1 14 25 26 29 26 7 0 -8 -4 -12 -8 -9 -4 2
-10 -5 -14 -16 -3 -11 -15 -25 -25 -30 -16 -8 -19 -7 -17 10 1 11 6 20 11 20
5 0 6 3 3 7 -4 3 -1 13 6 21 8 10 8 13 1 9 -7 -4 -15 0 -18 8 -5 13 -2 14 15
5 14 -8 18 -18 14 -33z m-121 7 c9 -24 7 -28 -9 -14 -17 14 -20 30 -6 30 5 0
12 -7 15 -16z m87 -5 c-2 -8 -4 -19 -4 -26 0 -14 -36 -14 -54 0 -14 10 -18 28
-5 26 19 -3 33 2 27 11 -4 6 3 8 17 6 13 -2 21 -9 19 -17z m629 -29 c0 -5 -3
-9 -7 -7 -5 1 -8 -2 -8 -8 0 -13 24 -15 32 -3 3 7 1 8 -5 4 -8 -5 -10 -1 -5 9
3 9 9 13 12 8 3 -5 20 -9 37 -8 24 0 30 -3 26 -14 -4 -10 -2 -12 9 -5 19 11
49 16 49 6 0 -4 -5 -14 -11 -22 -9 -13 -10 -12 -5 3 3 11 2 16 -5 12 -5 -4 -7
-15 -4 -26 4 -11 2 -19 -4 -19 -6 0 -10 3 -10 8 3 19 -2 29 -16 29 -8 0 -11
-5 -8 -10 3 -6 1 -7 -6 -3 -6 4 -9 12 -6 17 10 15 -2 10 -16 -8 -12 -15 -12
-16 1 -8 13 8 13 7 1 -8 -9 -11 -10 -17 -2 -17 6 0 10 -6 9 -12 -2 -7 5 -12
15 -12 19 2 19 -17 -1 -24 -12 -4 -45 52 -35 62 4 3 1 6 -6 6 -8 0 -11 7 -7
18 5 14 4 14 -9 -2 -11 -14 -15 -16 -15 -5 0 12 -2 12 -10 -1 -8 -13 -10 -13
-10 0 0 11 -3 11 -12 2 -22 -22 -27 -12 -10 18 16 29 42 41 42 20z m1847 -5
c-2 -5 -10 -10 -17 -10 -7 0 -15 5 -17 10 -2 6 6 11 17 11 11 0 19 -5 17 -11z
m-1971 -41 c2 -14 0 -14 -17 1 -10 10 -16 22 -13 27 8 12 27 -6 30 -28z m316
21 c15 1 25 -2 22 -6 -2 -4 0 -10 6 -14 5 -3 10 -1 10 5 0 7 6 10 14 7 8 -3
17 -3 19 1 2 4 2 1 1 -5 -2 -7 1 -13 6 -13 6 0 10 6 10 13 0 8 4 7 10 -3 9
-13 10 -13 10 0 0 13 1 13 10 0 5 -8 10 -10 10 -4 0 6 7 11 15 11 8 0 12 -4 9
-9 -3 -4 4 -8 16 -8 14 0 19 4 14 13 -6 9 -4 9 7 1 8 -6 51 -10 96 -10 45 1
80 -1 77 -3 -2 -2 1 -10 6 -16 12 -15 2 -48 -12 -39 -5 3 -4 11 3 20 6 8 10
14 8 15 -28 6 -47 4 -42 -5 3 -6 3 -8 -2 -4 -4 4 -15 2 -23 -5 -13 -10 -14 -9
-7 2 6 10 4 12 -5 6 -8 -5 -11 -4 -7 2 3 5 -9 9 -31 8 -20 -1 -43 3 -49 8 -9
6 -13 6 -13 -1 0 -11 -25 -10 -36 1 -12 12 -26 8 -18 -5 5 -8 0 -7 -11 2 -10
8 -16 10 -12 4 3 -6 0 -11 -8 -11 -8 0 -11 5 -8 10 3 6 1 7 -6 3 -6 -4 -18 -4
-24 1 -7 4 -6 1 3 -7 22 -21 24 -31 8 -41 -10 -7 -9 -9 5 -9 22 0 22 -16 0
-24 -10 -4 -14 -4 -10 0 4 4 2 13 -3 20 -6 6 -10 16 -9 20 5 20 -14 42 -32 39
-12 -3 -17 0 -13 7 4 7 2 8 -5 4 -6 -4 -9 -12 -6 -17 4 -5 2 -9 -4 -9 -5 0
-13 5 -16 10 -3 6 -1 10 5 10 6 0 8 4 5 10 -6 10 -65 -44 -65 -60 0 -5 5 -12
10 -15 6 -3 10 -1 10 4 0 6 5 11 11 11 5 0 7 -4 4 -10 -3 -6 1 -7 10 -4 10 4
15 2 13 -7 -2 -8 4 -13 14 -13 10 1 16 -5 15 -17 -1 -11 -4 -19 -7 -19 -10 0
-35 20 -26 20 6 0 1 6 -9 14 -11 8 -23 12 -28 9 -11 -7 -38 17 -31 28 3 5 0 9
-5 9 -6 0 -11 4 -11 9 0 5 8 8 18 7 10 0 22 11 31 32 8 18 17 28 20 24 3 -5
18 -8 33 -7z m1383 -3 c-3 -3 -11 0 -18 7 -9 10 -8 11 6 5 10 -3 15 -9 12 -12z
m-252 -10 c11 -10 17 -10 22 -1 6 8 9 8 15 -1 9 -15 1 -50 -12 -50 -5 0 7 -20
28 -45 34 -42 35 -45 15 -45 -12 0 -19 4 -16 10 3 6 -1 13 -9 16 -9 3 -14 10
-11 14 3 4 -7 20 -22 35 -25 25 -28 25 -40 9 -7 -10 -13 -21 -13 -26 0 -13
-27 -9 -40 7 -7 8 -16 12 -21 9 -11 -6 -11 -1 -2 21 5 15 8 14 19 -6 7 -13 13
-18 14 -11 0 7 5 10 10 7 6 -4 7 -11 4 -17 -4 -7 -2 -8 5 -4 9 6 9 11 0 22 -6
8 -9 18 -5 21 4 4 11 1 15 -6 6 -9 11 -10 15 -2 4 6 2 11 -5 11 -7 0 -10 3 -6
6 3 3 12 2 19 -2 17 -10 48 -13 42 -3 -2 4 2 10 8 13 7 3 3 3 -9 0 -14 -3 -25
1 -32 13 -6 10 -11 13 -11 7 0 -7 -7 -15 -16 -18 -10 -4 -13 -2 -9 7 4 6 0 4
-8 -5 -8 -10 -17 -15 -20 -12 -8 9 4 35 13 29 5 -3 11 -1 14 4 8 12 30 9 49
-7z m-1843 -2 c0 -5 -4 -10 -10 -10 -5 0 -10 5 -10 10 0 6 5 10 10 10 6 0 10
-4 10 -10z m1757 -5 c-4 -8 -2 -17 3 -20 6 -4 10 -11 10 -18 0 -6 -6 -3 -13 7
-11 16 -14 15 -35 -14 -13 -17 -27 -28 -33 -25 -5 4 -9 1 -9 -4 0 -6 -5 -11
-11 -11 -8 0 -8 4 0 14 9 10 9 16 1 21 -6 4 -9 14 -6 24 5 13 4 13 -8 -2 -10
-14 -15 -15 -19 -5 -4 10 -8 10 -16 -2 -8 -11 -11 -11 -11 -2 0 10 -5 10 -22
1 -20 -11 -20 -13 -5 -24 9 -6 14 -15 10 -18 -3 -4 -1 -7 6 -7 7 0 10 -4 6
-10 -3 -5 -12 -7 -20 -4 -8 4 -18 -1 -21 -10 -3 -9 -11 -13 -16 -10 -17 11
-51 11 -72 1 -13 -6 -17 -5 -14 3 2 6 7 11 12 10 4 -1 14 7 22 17 13 17 15 17
27 1 12 -15 32 -12 56 8 2 2 -7 13 -20 25 -13 11 -19 18 -13 15 7 -3 15 1 18
10 3 8 10 12 16 9 5 -3 16 -3 23 2 6 4 23 8 37 9 14 1 27 3 30 4 12 6 37 5 53
-3 12 -5 19 -3 23 8 3 8 8 15 11 15 3 0 3 -7 0 -15z m-627 -10 c-7 -8 -15 -13
-19 -11 -4 3 -7 -4 -7 -14 0 -17 3 -16 23 5 22 21 78 42 68 24 -3 -4 -1 -10 5
-14 5 -3 10 -2 10 3 0 6 6 12 13 15 8 3 14 -1 14 -9 0 -7 -4 -11 -9 -8 -4 3
-11 -2 -14 -11 -6 -14 -9 -14 -16 -3 -7 10 -8 9 -4 -4 3 -10 0 -18 -5 -18 -6
0 -9 8 -7 18 4 12 -1 18 -13 18 -10 0 -15 -5 -11 -10 12 -21 10 -53 -4 -53
-10 0 -13 6 -9 16 10 26 10 29 0 28 -5 -1 -9 -7 -7 -14 2 -7 -2 -12 -9 -11 -6
2 -14 -4 -16 -12 -4 -13 -3 -13 6 0 7 9 11 10 11 3 0 -18 -19 -26 -34 -14 -10
9 -15 8 -19 -4 -4 -8 -13 -12 -21 -9 -8 3 -17 0 -21 -5 -3 -6 -11 -9 -16 -6
-15 10 -10 23 9 21 11 0 16 6 16 17 -1 10 3 16 10 14 6 -3 10 -10 8 -17 -2
-10 0 -11 11 -2 8 7 17 9 21 5 3 -4 4 10 2 30 -4 31 -2 36 17 40 12 2 24 5 26
6 2 0 -2 -6 -9 -14z m275 -2 c11 -7 16 -13 11 -13 -5 0 -3 -7 4 -15 7 -8 16
-12 21 -9 5 3 17 0 26 -5 16 -9 15 -10 -7 -8 -18 1 -24 -2 -22 -15 2 -12 -4
-16 -25 -13 -16 2 -35 -1 -43 -5 -17 -8 -77 24 -62 34 6 3 17 -1 25 -9 19 -19
24 -19 24 0 0 8 -4 12 -9 9 -8 -5 -10 1 -12 35 -1 16 -33 24 -41 11 -3 -5 0
-12 6 -16 8 -4 9 -3 5 4 -4 7 -5 12 -2 12 3 0 10 -9 16 -21 10 -18 10 -19 -8
-10 -15 8 -23 6 -36 -8 -11 -12 -13 -21 -7 -25 5 -4 9 -15 8 -25 -1 -16 -5
-17 -19 -10 -10 5 -18 15 -18 21 0 6 7 5 18 -3 14 -11 13 -10 -2 9 -14 17 -16
22 -5 22 11 0 11 2 -1 10 -21 14 -23 13 -39 -12 -13 -21 -13 -22 2 -10 9 8 18
9 21 4 7 -12 -19 -23 -38 -16 -8 3 -17 12 -20 19 -3 9 0 12 8 9 8 -3 21 5 30
18 9 13 19 22 21 21 10 -6 25 -3 24 5 -1 4 -1 10 0 13 2 10 126 3 146 -8z
m-798 -14 c-15 -24 -22 -24 -24 -1 -1 11 6 18 17 19 17 2 18 -1 7 -18z m1393
12 c0 -9 -20 -37 -20 -29 0 3 -2 13 -5 21 -4 8 0 14 10 14 8 0 15 -3 15 -6z
m-1277 -12 c10 8 18 7 31 -2 17 -12 17 -14 0 -28 -10 -7 -15 -9 -11 -2 5 8 -8
10 -43 9 -28 -2 -50 -2 -50 0 0 1 7 10 16 19 12 12 19 13 30 4 10 -8 18 -8 27
0z m254 -21 c-1 -10 -7 -20 -13 -22 -8 -3 -11 2 -9 13 2 10 -3 18 -11 18 -10
0 -11 -4 -3 -14 16 -19 -1 -16 -25 5 -16 13 -18 14 -8 1 11 -14 9 -16 -13 -16
-19 0 -23 3 -15 12 7 8 5 12 -5 12 -7 0 -13 -5 -12 -10 1 -5 -4 -12 -12 -15
-8 -2 -11 0 -7 6 3 6 1 14 -5 18 -8 4 -9 3 -5 -4 4 -7 2 -12 -4 -12 -7 0 -6
-5 2 -14 8 -9 17 -11 22 -5 6 5 15 4 23 -2 10 -9 13 -8 13 1 0 9 6 8 19 -4 15
-14 24 -15 39 -7 11 6 22 7 26 4 3 -3 6 -2 6 4 0 5 7 10 15 10 33 0 8 -30 -28
-32 -9 -1 -24 -10 -32 -21 -15 -18 -16 -18 -38 7 -23 26 -50 31 -76 14 -11 -6
-13 -4 -8 9 4 10 3 26 -3 35 -5 10 -7 20 -5 23 2 2 42 4 89 4 74 0 84 -3 83
-18z m79 7 c-10 -8 -23 -12 -27 -9 -5 3 -9 1 -9 -5 0 -5 6 -11 13 -14 6 -2 8
-8 4 -13 -9 -9 -28 15 -24 30 2 5 11 10 21 12 10 1 20 5 24 8 3 3 8 6 11 6 3
0 -3 -7 -13 -15z m-56 -15 c0 -5 -2 -10 -4 -10 -3 0 -8 5 -11 10 -3 6 -1 10 4
10 6 0 11 -4 11 -10z m-65 -20 c3 -5 1 -10 -4 -10 -6 0 -11 5 -11 10 0 6 2 10
4 10 3 0 8 -4 11 -10z m190 -40 c-3 -5 -10 -10 -16 -10 -5 0 -9 5 -9 10 0 6 7
10 16 10 8 0 12 -4 9 -10z"/>
<path d="M2630 881 c0 -6 3 -11 8 -12 4 0 15 -2 25 -4 11 -2 16 0 12 3 -4 4
-10 7 -13 7 -4 0 -13 4 -19 8 -8 5 -13 4 -13 -2z"/>
<path d="M2768 816 c-19 -14 -23 -26 -10 -26 4 0 13 9 20 20 14 23 13 24 -10
6z"/>
<path d="M2853 796 c3 -7 0 -20 -6 -27 -10 -11 -9 -11 5 0 15 11 15 41 1 41
-3 0 -3 -6 0 -14z"/>
<path d="M2901 773 c15 -25 24 -28 34 -13 4 6 11 7 17 4 7 -5 8 -2 3 5 -5 9
-10 10 -18 2 -8 -8 -16 -6 -30 7 -19 16 -19 16 -6 -5z"/>
<path d="M3102 726 c4 -5 3 -15 -3 -22 -13 -15 4 -28 42 -33 5 0 8 -5 4 -11
-3 -5 -13 -7 -23 -4 -14 5 -14 4 -3 -4 18 -13 42 1 58 34 11 23 1 45 -11 25
-8 -12 -30 -8 -52 9 -11 8 -16 10 -12 6z m43 -31 c6 0 16 4 23 9 11 7 11 4 1
-13 -8 -11 -16 -17 -19 -13 -3 4 -12 7 -20 7 -22 -2 -31 5 -24 16 3 6 11 6 17
1 7 -4 17 -8 22 -7z"/>
<path d="M2970 700 c0 -5 5 -10 11 -10 5 0 7 5 4 10 -3 6 -8 10 -11 10 -2 0
-4 -4 -4 -10z"/>
<path d="M3234 693 c2 -10 5 -16 8 -13 3 3 15 -3 26 -13 17 -16 20 -16 32 -2
7 9 10 18 6 22 -3 3 -6 0 -6 -8 0 -11 -2 -11 -9 -1 -4 7 -14 14 -22 15 -8 2
-19 6 -26 10 -7 4 -10 1 -9 -10z m47 -20 c13 -16 12 -17 -3 -4 -17 13 -22 21
-14 21 2 0 10 -8 17 -17z"/>
<path d="M5346 871 c-4 -5 -2 -12 3 -15 5 -4 12 -2 15 3 4 5 2 12 -3 15 -5 4
-12 2 -15 -3z"/>
<path d="M5266 838 c3 -4 9 -8 15 -8 5 0 9 4 9 8 0 5 -7 9 -15 9 -8 0 -12 -4
-9 -9z"/>
<path d="M5209 813 c-13 -16 -12 -17 4 -4 9 7 17 15 17 17 0 8 -8 3 -21 -13z"/>
<path d="M5161 803 c-8 -14 -10 -15 -11 -3 0 10 -5 7 -16 -8 -9 -13 -20 -19
-27 -15 -19 12 -37 12 -37 2 0 -6 -4 -8 -9 -4 -5 3 -12 1 -16 -5 -4 -6 -11 -7
-17 -4 -6 4 -8 2 -5 -4 8 -12 24 -11 53 5 17 10 23 8 37 -8 14 -16 20 -17 37
-7 11 7 16 14 10 16 -5 2 -3 14 6 28 9 13 14 24 11 24 -3 0 -11 -8 -16 -17z
m-16 -30 c-2 -10 -4 -19 -4 -21 -1 -2 -6 0 -11 3 -8 5 -7 11 1 21 15 18 18 18
14 -3z"/>
<path d="M4937 736 c-4 -9 0 -13 11 -11 9 1 25 -2 35 -7 9 -5 17 -6 17 -4 0 3
-13 12 -29 20 -24 13 -30 13 -34 2z"/>
<path d="M4895 730 c-4 -6 -10 -8 -15 -5 -4 3 -13 -2 -19 -9 -21 -26 6 -26 29
-1 13 14 21 25 17 25 -3 0 -9 -5 -12 -10z"/>
<path d="M4766 701 c-4 -5 -2 -12 3 -15 5 -4 12 -2 15 3 4 5 2 12 -3 15 -5 4
-12 2 -15 -3z"/>
<path d="M5546 798 c3 -5 10 -6 15 -3 13 9 11 12 -6 12 -8 0 -12 -4 -9 -9z"/>
<path d="M2550 841 c0 -5 7 -11 14 -14 10 -4 13 -1 9 9 -6 15 -23 19 -23 5z"/>
<path d="M5010 737 c0 -2 6 -10 14 -16 11 -9 16 -9 22 1 4 7 4 10 -1 6 -4 -4
-14 -3 -22 3 -7 6 -13 9 -13 6z"/>
<path d="M5009 673 c-13 -16 -12 -17 4 -4 16 13 21 21 13 21 -2 0 -10 -8 -17
-17z"/>
<path d="M4556 659 c4 -8 30 -6 38 2 3 3 -5 5 -19 5 -13 0 -22 -3 -19 -7z"/>
<path d="M4466 648 c3 -4 9 -8 15 -8 5 0 9 4 9 8 0 5 -7 9 -15 9 -8 0 -12 -4
-9 -9z"/>
<path d="M2862 748 c-8 -8 -9 -15 -1 -25 8 -9 8 -17 -1 -27 -8 -11 -9 -20 -1
-33 6 -11 11 -13 11 -5 0 7 4 11 9 7 6 -3 15 3 21 12 10 16 11 16 7 -4 -3 -13
0 -26 6 -30 7 -3 9 -3 5 2 -4 4 2 15 14 25 18 14 18 17 5 18 -10 1 -24 3 -32
4 -9 1 -14 7 -11 14 3 7 -2 18 -9 24 -8 7 -12 16 -9 21 7 13 0 11 -14 -3z m19
-25 c13 -16 12 -17 -3 -4 -17 13 -22 21 -14 21 2 0 10 -8 17 -17z m9 -46 c0
-7 -4 -6 -10 3 -8 12 -10 12 -10 1 0 -8 -3 -12 -6 -8 -9 9 6 28 17 22 5 -4 9
-12 9 -18z"/>
<path d="M2910 716 c0 -2 7 -7 16 -10 8 -3 12 -2 9 4 -6 10 -25 14 -25 6z"/>
<path d="M5480 800 c-8 -5 -10 -10 -5 -10 6 0 17 5 25 10 8 5 11 10 5 10 -5 0
-17 -5 -25 -10z"/>
<path d="M5295 709 c-4 -6 -5 -12 -2 -15 2 -3 7 2 10 11 7 17 1 20 -8 4z"/>
<path d="M2605 750 c6 -10 4 -12 -10 -6 -16 6 -16 4 -4 -11 7 -10 14 -19 15
-21 1 -1 4 6 7 18 3 11 0 23 -5 27 -7 4 -8 1 -3 -7z"/>
<path d="M3014 739 c-8 -14 13 -18 30 -6 16 12 16 13 -4 13 -12 0 -23 -4 -26
-7z"/>
<path d="M2700 700 c-12 -7 -10 -9 7 -7 12 0 19 5 17 9 -6 10 -6 10 -24 -2z"/>
<path d="M3403 653 c0 -9 4 -10 14 -2 7 6 13 12 13 14 0 1 -6 2 -13 2 -8 0
-14 -6 -14 -14z"/>
<path d="M3856 618 c3 -5 10 -6 15 -3 13 9 11 12 -6 12 -8 0 -12 -4 -9 -9z"/>
<path d="M4541 616 c-16 -19 -4 -49 14 -33 8 7 10 16 4 23 -5 6 -6 14 -2 17 3
4 4 7 1 7 -3 0 -11 -6 -17 -14z"/>
<path d="M4115 622 c3 -3 0 -11 -6 -18 -6 -8 -6 -14 0 -18 5 -4 13 -1 18 6 13
21 12 35 -3 35 -8 0 -12 -3 -9 -5z"/>
<path d="M4193 609 c-1 -9 7 -19 18 -22 13 -4 17 -11 13 -24 -5 -15 -4 -16 5
-3 9 12 13 13 20 2 6 -11 10 -10 15 5 5 12 1 23 -13 34 -11 9 -18 18 -16 21 2
2 -6 4 -18 4 -15 0 -24 -6 -24 -17z m55 -21 c3 2 7 -1 9 -7 1 -7 0 -8 -4 -1
-2 5 -9 8 -14 4 -5 -3 -12 2 -15 10 -3 9 -11 13 -17 9 -6 -4 -7 -1 -2 7 6 10
11 9 22 -6 8 -10 17 -18 21 -16z"/>
<path d="M3754 531 c20 -22 26 -25 26 -13 0 4 -10 13 -22 21 -23 14 -23 14 -4
-8z"/>
<path d="M1813 1265 c0 -8 4 -12 9 -9 5 3 6 10 3 15 -9 13 -12 11 -12 -6z"/>
<path d="M1875 1240 c3 -5 8 -10 11 -10 2 0 4 5 4 10 0 6 -5 10 -11 10 -5 0
-7 -4 -4 -10z"/>
<path d="M6054 1216 c1 -8 5 -18 8 -22 4 -3 5 1 4 10 -1 8 -5 18 -8 22 -4 3
-5 -1 -4 -10z"/>
<path d="M6170 1219 c0 -5 5 -7 10 -4 6 3 10 8 10 11 0 2 -4 4 -10 4 -5 0 -10
-5 -10 -11z"/>
<path d="M6396 1207 c3 -10 9 -15 12 -12 3 3 0 11 -7 18 -10 9 -11 8 -5 -6z"/>
<path d="M1636 1202 c-3 -5 1 -9 9 -9 8 0 12 4 9 9 -3 4 -7 8 -9 8 -2 0 -6 -4
-9 -8z"/>
<path d="M1865 1200 c-3 -6 1 -7 9 -4 18 7 21 14 7 14 -6 0 -13 -4 -16 -10z"/>
<path d="M1956 1202 c-3 -5 1 -9 9 -9 8 0 12 4 9 9 -3 4 -7 8 -9 8 -2 0 -6 -4
-9 -8z"/>
<path d="M6010 1206 c0 -2 7 -7 16 -10 8 -3 12 -2 9 4 -6 10 -25 14 -25 6z"/>
<path d="M5955 1182 c3 -3 -1 -12 -7 -21 -8 -10 -4 -9 10 3 26 23 26 23 7 23
-8 0 -13 -3 -10 -5z"/>
<path d="M5990 1186 c0 -2 7 -7 16 -10 8 -3 12 -2 9 4 -6 10 -25 14 -25 6z"/>
<path d="M6110 1186 c0 -2 7 -7 16 -10 8 -3 12 -2 9 4 -6 10 -25 14 -25 6z"/>
<path d="M6210 1180 c0 -5 5 -10 11 -10 5 0 7 5 4 10 -3 6 -8 10 -11 10 -2 0
-4 -4 -4 -10z"/>
<path d="M6295 1180 c3 -5 8 -10 11 -10 2 0 4 5 4 10 0 6 -5 10 -11 10 -5 0
-7 -4 -4 -10z"/>
<path d="M1670 1176 c0 -2 8 -10 18 -17 15 -13 16 -12 3 4 -13 16 -21 21 -21
13z"/>
<path d="M1975 1170 c-4 -6 -12 -7 -18 -4 -7 4 -8 3 -4 -1 13 -15 34 -14 34 1
0 17 -4 18 -12 4z"/>
<path d="M1570 1159 c0 -5 5 -7 10 -4 6 3 10 8 10 11 0 2 -4 4 -10 4 -5 0 -10
-5 -10 -11z"/>
<path d="M1806 1162 c-3 -5 1 -9 9 -9 8 0 12 4 9 9 -3 4 -7 8 -9 8 -2 0 -6 -4
-9 -8z"/>
<path d="M5979 1153 c-13 -16 -12 -17 4 -4 9 7 17 15 17 17 0 8 -8 3 -21 -13z"/>
<path d="M6099 1153 c-13 -16 -12 -17 4 -4 9 7 17 15 17 17 0 8 -8 3 -21 -13z"/>
<path d="M6030 1156 c0 -2 8 -10 18 -17 15 -13 16 -12 3 4 -13 16 -21 21 -21
13z"/>
<path d="M1610 1139 c0 -5 5 -7 10 -4 6 3 10 8 10 11 0 2 -4 4 -10 4 -5 0 -10
-5 -10 -11z"/>
<path d="M2085 1142 c-10 -7 -19 -52 -11 -52 2 0 9 14 15 30 11 33 11 33 -4
22z"/>
<path d="M6454 1142 c4 -3 14 -7 22 -8 9 -1 13 0 10 4 -4 3 -14 7 -22 8 -9 1
-13 0 -10 -4z"/>
<path d="M1553 1125 c0 -8 4 -12 9 -9 5 3 6 10 3 15 -9 13 -12 11 -12 -6z"/>
<path d="M1946 1125 c-9 -26 -7 -32 5 -12 6 10 9 21 6 23 -2 3 -7 -2 -11 -11z"/>
<path d="M2122 1124 c10 -10 20 -15 24 -12 3 4 -5 12 -18 18 -22 12 -22 12 -6
-6z"/>
<path d="M5926 1131 c-17 -6 -17 -8 -4 -14 10 -3 19 0 22 9 3 8 4 14 3 13 -1
0 -11 -4 -21 -8z"/>
<path d="M6016 1127 c3 -10 9 -15 12 -12 3 3 0 11 -7 18 -10 9 -11 8 -5 -6z"/>
<path d="M1753 1115 c0 -8 4 -12 9 -9 5 3 6 10 3 15 -9 13 -12 11 -12 -6z"/>
<path d="M6350 1126 c0 -2 7 -7 16 -10 8 -3 12 -2 9 4 -6 10 -25 14 -25 6z"/>
<path d="M6575 1120 c-3 -5 -1 -10 4 -10 6 0 11 5 11 10 0 6 -2 10 -4 10 -3 0
-8 -4 -11 -10z"/>
<path d="M1870 1116 c0 -2 8 -10 18 -17 15 -13 16 -12 3 4 -13 16 -21 21 -21
13z"/>
<path d="M5877 1109 c7 -7 15 -10 18 -7 3 3 -2 9 -12 12 -14 6 -15 5 -6 -5z"/>
<path d="M6000 1111 c0 -6 4 -13 10 -16 6 -3 7 1 4 9 -7 18 -14 21 -14 7z"/>
<path d="M1474 1102 c4 -3 14 -7 22 -8 9 -1 13 0 10 4 -4 3 -14 7 -22 8 -9 1
-13 0 -10 -4z"/>
<path d="M1710 1106 c0 -2 7 -7 16 -10 8 -3 12 -2 9 4 -6 10 -25 14 -25 6z"/>
<path d="M2116 1098 c5 -8 2 -9 -9 -5 -24 9 -21 0 4 -14 13 -6 19 -7 15 -1 -3
6 -1 12 6 14 7 3 5 7 -6 11 -11 5 -15 3 -10 -5z"/>
<path d="M5840 1100 c-8 -5 -11 -13 -6 -17 5 -4 11 -2 13 5 3 6 10 9 15 6 7
-4 8 -2 4 4 -9 14 -7 14 -26 2z"/>
<path d="M6073 1090 c-1 -11 2 -20 5 -20 4 0 8 9 9 20 1 11 -2 20 -5 20 -4 0
-8 -9 -9 -20z"/>
<path d="M6320 1095 c-7 -8 -17 -12 -23 -8 -6 4 -7 1 -3 -6 6 -9 13 -8 27 5
10 9 19 19 19 21 0 7 -8 2 -20 -12z"/>
<path d="M6494 1102 c4 -3 14 -7 22 -8 9 -1 13 0 10 4 -4 3 -14 7 -22 8 -9 1
-13 0 -10 -4z"/>
<path d="M1853 1087 c0 -8 6 -14 14 -14 9 0 10 4 2 14 -6 7 -12 13 -14 13 -1
0 -2 -6 -2 -13z"/>
<path d="M5801 1084 c0 -11 3 -14 6 -6 3 7 2 16 -1 19 -3 4 -6 -2 -5 -13z"/>
<path d="M1430 1076 c7 -7 13 -7 20 0 6 6 3 10 -10 10 -13 0 -16 -4 -10 -10z"/>
<path d="M1555 1080 c-3 -5 -1 -10 4 -10 6 0 11 5 11 10 0 6 -2 10 -4 10 -3 0
-8 -4 -11 -10z"/>
<path d="M1706 1082 c-3 -5 1 -9 9 -9 8 0 12 4 9 9 -3 4 -7 8 -9 8 -2 0 -6 -4
-9 -8z"/>
<path d="M2045 1080 c-3 -5 -1 -10 4 -10 6 0 11 5 11 10 0 6 -2 10 -4 10 -3 0
-8 -4 -11 -10z"/>
<path d="M5875 1079 c-3 -4 2 -6 10 -5 21 3 28 13 10 13 -9 0 -18 -4 -20 -8z"/>
<path d="M5960 1080 c8 -5 20 -10 25 -10 6 0 3 5 -5 10 -8 5 -19 10 -25 10 -5
0 -3 -5 5 -10z"/>
<path d="M6179 1073 c-13 -16 -12 -17 4 -4 9 7 17 15 17 17 0 8 -8 3 -21 -13z"/>
<path d="M6359 1073 c-13 -16 -12 -17 4 -4 16 13 21 21 13 21 -2 0 -10 -8 -17
-17z"/>
<path d="M2075 1069 c-4 -6 -5 -12 -2 -15 2 -3 7 2 10 11 7 17 1 20 -8 4z"/>
<path d="M2232 1071 c2 -7 7 -12 11 -12 12 1 9 15 -3 20 -7 2 -11 -2 -8 -8z"/>
<path d="M5917 1073 c-12 -11 -8 -23 7 -23 8 0 18 4 21 10 4 6 -1 7 -11 3 -12
-4 -15 -3 -10 5 8 13 3 16 -7 5z"/>
<path d="M1390 1059 c0 -5 5 -7 10 -4 6 3 10 8 10 11 0 2 -4 4 -10 4 -5 0 -10
-5 -10 -11z"/>
<path d="M1884 1055 c-5 -13 -9 -13 -23 -3 -14 12 -15 11 -2 -4 18 -23 27 -23
34 2 6 23 -1 27 -9 5z"/>
<path d="M2014 1059 c-4 -7 -3 -9 4 -5 5 3 13 0 15 -6 4 -9 6 -10 6 -1 1 17
-16 25 -25 12z"/>
<path d="M2096 1062 c-7 -12 12 -38 21 -28 4 5 2 11 -5 13 -6 3 -10 9 -6 14 3
5 3 9 0 9 -3 0 -7 -4 -10 -8z"/>
<path d="M2139 1068 c-8 -25 -2 -51 13 -59 12 -6 18 -6 18 1 0 5 -6 10 -14 10
-16 0 -16 31 -1 42 6 5 5 8 -2 8 -7 0 -13 -1 -14 -2z"/>
<path d="M5813 1053 c-3 -7 -10 -10 -16 -6 -6 3 -7 1 -3 -5 10 -16 26 -15 26
1 0 7 9 13 20 13 11 0 20 -6 20 -13 0 -7 5 -13 10 -13 7 0 8 6 2 17 -12 20
-52 25 -59 6z"/>
<path d="M6035 1061 c-3 -6 3 -14 13 -20 14 -7 19 -6 19 4 0 7 -7 11 -15 7
-10 -3 -13 -1 -8 6 4 7 5 12 2 12 -3 0 -7 -4 -11 -9z"/>
<path d="M6117 1053 c3 -7 6 -13 8 -13 2 0 5 6 8 13 3 8 -1 14 -8 14 -7 0 -11
-6 -8 -14z"/>
<path d="M6495 1060 c-3 -5 -1 -10 4 -10 6 0 11 5 11 10 0 6 -2 10 -4 10 -3 0
-8 -4 -11 -10z"/>
<path d="M1595 1051 c-3 -5 -2 -12 3 -15 5 -3 9 1 9 9 0 17 -3 19 -12 6z"/>
<path d="M5726 1046 c3 -8 13 -17 22 -21 13 -5 13 -2 -3 15 -21 24 -26 25 -19
6z"/>
<path d="M5894 1040 c2 -18 9 -24 23 -23 12 1 19 -5 20 -17 1 -11 -4 -19 -10
-17 -7 1 -11 -8 -10 -21 2 -13 -1 -21 -7 -17 -6 3 -13 -1 -16 -9 -3 -9 -10
-13 -15 -10 -5 3 -6 -2 -3 -11 5 -11 2 -14 -12 -8 -12 4 -15 3 -10 -5 12 -19
24 -14 40 16 8 15 18 26 23 25 4 -1 7 7 6 18 -2 11 3 18 10 16 7 -1 12 8 12
23 -1 20 -5 24 -23 23 -13 -2 -21 1 -18 5 2 4 0 14 -5 22 -7 11 -8 8 -5 -10z"/>
<path d="M5957 1053 c-12 -12 -7 -22 16 -33 21 -11 22 -11 2 5 -17 14 -18 17
-5 25 8 5 10 10 4 10 -6 0 -14 -3 -17 -7z"/>
<path d="M6299 1048 c15 -21 31 -23 31 -6 0 6 -3 8 -7 5 -3 -4 -13 -1 -22 6
-14 11 -14 10 -2 -5z"/>
<path d="M1076 1033 c-6 -14 -5 -15 5 -6 7 7 10 15 7 18 -3 3 -9 -2 -12 -12z"/>
<path d="M1720 1040 c0 -5 1 -12 3 -14 1 -2 -7 -14 -18 -27 l-20 -24 20 17
c18 15 32 58 19 58 -2 0 -4 -4 -4 -10z"/>
<path d="M1926 1042 c-3 -5 1 -9 9 -9 8 0 15 4 15 9 0 4 -4 8 -9 8 -6 0 -12
-4 -15 -8z"/>
<path d="M2167 1039 c7 -7 15 -10 18 -7 3 3 -2 9 -12 12 -14 6 -15 5 -6 -5z"/>
<path d="M1275 1031 c-3 -5 -2 -12 3 -15 5 -3 9 1 9 9 0 17 -3 19 -12 6z"/>
<path d="M1633 1025 c0 -8 4 -12 9 -9 5 3 6 10 3 15 -9 13 -12 11 -12 -6z"/>
<path d="M1799 1038 c-5 -13 -5 -60 0 -63 4 -2 7 12 7 31 0 29 -3 42 -7 32z"/>
<path d="M2014 1032 c3 -5 0 -13 -6 -15 -9 -4 -10 -6 -1 -6 17 -1 25 16 12 25
-7 4 -9 3 -5 -4z"/>
<path d="M2060 1031 c0 -7 -5 -9 -12 -5 -7 5 -8 3 -3 -5 5 -9 10 -10 18 -2 6
6 8 14 4 18 -4 3 -7 1 -7 -6z"/>
<path d="M1676 1013 c-6 -14 -5 -15 5 -6 7 7 10 15 7 18 -3 3 -9 -2 -12 -12z"/>
<path d="M1825 1020 c-3 -6 1 -7 9 -4 18 7 21 14 7 14 -6 0 -13 -4 -16 -10z"/>
<path d="M2079 1023 c0 -5 -3 -19 -5 -32 -2 -14 -2 -22 1 -19 8 8 17 58 10 58
-3 0 -5 -3 -6 -7z"/>
<path d="M2191 1016 c-9 -11 -6 -17 14 -30 14 -9 25 -12 25 -6 0 5 -5 10 -11
10 -5 0 -7 4 -4 10 4 6 -1 7 -12 4 -16 -5 -16 -4 1 10 11 9 15 16 9 16 -6 0
-16 -6 -22 -14z"/>
<path d="M5780 1015 c10 -12 10 -18 0 -30 -9 -10 -9 -15 -1 -15 6 0 11 5 11
11 0 5 4 7 10 4 6 -4 7 1 4 12 -5 16 -4 16 10 -1 9 -11 16 -15 16 -9 0 14 -25
34 -33 26 -4 -3 -7 -1 -7 5 0 7 -5 12 -11 12 -8 0 -8 -5 1 -15z"/>
<path d="M5830 1020 c0 -5 5 -10 10 -10 6 0 10 5 10 10 0 6 -4 10 -10 10 -5 0
-10 -4 -10 -10z"/>
<path d="M6010 1020 c-9 -6 -10 -10 -3 -10 6 0 15 5 18 10 8 12 4 12 -15 0z"/>
<path d="M6036 1015 c-9 -26 -7 -32 5 -12 6 10 9 21 6 23 -2 3 -7 -2 -11 -11z"/>
<path d="M6187 1013 c3 -7 6 -13 8 -13 1 0 7 6 13 13 8 10 6 13 -7 13 -11 0
-17 -6 -14 -13z"/>
<path d="M6350 1022 c0 -5 7 -9 15 -9 8 0 12 4 9 9 -3 4 -9 8 -15 8 -5 0 -9
-4 -9 -8z"/>
<path d="M6490 1020 c0 -5 5 -10 11 -10 5 0 7 5 4 10 -3 6 -8 10 -11 10 -2 0
-4 -4 -4 -10z"/>
<path d="M6555 1019 c-3 -4 2 -6 10 -5 21 3 28 13 10 13 -9 0 -18 -4 -20 -8z"/>
<path d="M1535 1009 c-4 -6 -5 -12 -2 -15 2 -3 7 2 10 11 7 17 1 20 -8 4z"/>
<path d="M1955 1010 c3 -5 8 -10 11 -10 2 0 4 5 4 10 0 6 -5 10 -11 10 -5 0
-7 -4 -4 -10z"/>
<path d="M6060 1014 c0 -5 7 -18 15 -28 8 -11 15 -16 15 -10 0 5 -7 18 -15 28
-8 11 -15 16 -15 10z"/>
<path d="M6097 1004 c2 -7 11 -10 19 -7 19 7 18 10 -5 16 -13 3 -18 1 -14 -9z"/>
<path d="M1339 1008 c-5 -18 -6 -38 -1 -34 7 8 12 36 6 36 -2 0 -4 -1 -5 -2z"/>
<path d="M1374 996 c1 -8 5 -18 8 -22 4 -3 5 1 4 10 -1 8 -5 18 -8 22 -4 3 -5
-1 -4 -10z"/>
<path d="M1840 1000 c-12 -7 -10 -9 7 -7 12 0 19 5 17 9 -6 10 -6 10 -24 -2z"/>
<path d="M1894 998 c-5 -7 -2 -8 6 -3 9 6 12 4 8 -7 -4 -8 -1 -15 6 -15 17 0
16 25 0 31 -8 3 -16 0 -20 -6z"/>
<path d="M2030 1000 c0 -6 7 -10 15 -10 8 0 15 2 15 4 0 2 -7 6 -15 10 -8 3
-15 1 -15 -4z"/>
<path d="M2108 1003 c7 -3 16 -2 19 1 4 3 -2 6 -13 5 -11 0 -14 -3 -6 -6z"/>
<path d="M5875 1000 c27 -12 43 -12 25 0 -8 5 -22 9 -30 9 -10 0 -8 -3 5 -9z"/>
<path d="M5970 992 c6 -13 16 -20 22 -16 7 5 9 2 6 -8 -4 -8 -2 -21 3 -29 5
-9 7 -4 6 16 -1 17 -6 28 -9 25 -4 -3 -14 4 -23 15 -16 19 -16 19 -5 -3z"/>
<path d="M6226 1002 c-3 -5 1 -9 9 -9 8 0 15 4 15 9 0 4 -4 8 -9 8 -6 0 -12
-4 -15 -8z"/>
<path d="M6433 993 c0 -9 4 -10 14 -2 7 6 13 12 13 14 0 1 -6 2 -13 2 -8 0
-14 -6 -14 -14z"/>
<path d="M1975 991 c-3 -5 0 -13 6 -17 7 -4 9 -3 5 4 -3 5 0 13 6 15 9 4 10 6
1 6 -6 1 -14 -3 -18 -8z"/>
<path d="M2138 994 c-4 -3 -14 -7 -25 -8 -21 -3 -30 -33 -13 -50 9 -8 10 -4 4
18 -4 18 -3 27 3 23 6 -4 19 0 29 8 10 8 16 15 13 15 -3 0 -8 -3 -11 -6z"/>
<path d="M6053 985 c4 -5 -3 -15 -15 -22 -13 -7 -18 -12 -12 -13 5 0 18 6 29
13 15 12 16 15 4 22 -8 5 -10 4 -6 0z"/>
<path d="M6361 976 c-7 -8 -22 -13 -33 -11 -11 3 -18 2 -14 -2 3 -3 0 -13 -6
-22 -11 -14 -10 -14 7 0 11 9 28 15 38 14 11 -2 16 -1 13 2 -3 4 -1 12 5 20 6
7 9 13 6 13 -2 0 -10 -6 -16 -14z"/>
<path d="M6396 982 c-3 -5 1 -9 9 -9 8 0 12 4 9 9 -3 4 -7 8 -9 8 -2 0 -6 -4
-9 -8z"/>
<path d="M6570 979 c0 -5 5 -7 10 -4 6 3 10 8 10 11 0 2 -4 4 -10 4 -5 0 -10
-5 -10 -11z"/>
<path d="M1469 963 c-13 -16 -12 -17 4 -4 16 13 21 21 13 21 -2 0 -10 -8 -17
-17z"/>
<path d="M1828 973 c6 -2 18 -2 25 0 6 3 1 5 -13 5 -14 0 -19 -2 -12 -5z"/>
<path d="M2000 974 c0 -6 6 -16 13 -23 10 -10 7 -12 -13 -9 -17 2 -26 -2 -28
-14 -2 -10 1 -18 7 -18 6 0 8 6 5 14 -4 11 0 13 14 9 26 -6 34 8 16 32 -8 10
-14 14 -14 9z"/>
<path d="M2150 970 c0 -5 -5 -9 -11 -7 -6 1 -13 -4 -14 -11 -2 -7 -1 -8 2 -2
3 8 9 7 19 -1 8 -7 17 -9 21 -5 3 3 1 6 -5 6 -6 0 -9 7 -6 15 4 8 3 15 0 15
-3 0 -6 -4 -6 -10z"/>
<path d="M5881 964 c0 -11 3 -14 6 -6 3 7 2 16 -1 19 -3 4 -6 -2 -5 -13z"/>
<path d="M1587 959 c7 -7 15 -10 18 -7 3 3 -2 9 -12 12 -14 6 -15 5 -6 -5z"/>
<path d="M1750 961 c0 -6 4 -12 8 -15 5 -3 9 1 9 9 0 8 -4 15 -9 15 -4 0 -8
-4 -8 -9z"/>
<path d="M1873 955 c0 -8 4 -12 9 -9 4 3 8 9 8 15 0 5 -4 9 -8 9 -5 0 -9 -7
-9 -15z"/>
<path d="M1945 959 c-4 -6 -4 -13 -1 -16 3 -4 6 -1 6 6 0 7 5 9 10 6 6 -3 10
-1 10 4 0 14 -17 14 -25 0z"/>
<path d="M2040 960 c0 -5 5 -10 10 -10 6 0 10 5 10 10 0 6 -4 10 -10 10 -5 0
-10 -4 -10 -10z"/>
<path d="M5952 953 c2 -10 10 -17 16 -15 7 1 12 -7 12 -19 0 -11 -5 -17 -10
-14 -15 9 -23 -21 -11 -42 9 -15 10 -13 5 10 -5 21 -3 27 7 25 9 -2 14 6 14
22 0 16 -5 24 -14 22 -8 -2 -11 3 -8 13 4 8 2 15 -4 15 -6 0 -9 -8 -7 -17z"/>
<path d="M6185 960 c-3 -6 1 -7 9 -4 18 7 21 14 7 14 -6 0 -13 -4 -16 -10z"/>
<path d="M6470 961 c0 -6 4 -13 10 -16 6 -3 7 1 4 9 -7 18 -14 21 -14 7z"/>
<path d="M1837 949 c7 -7 15 -10 18 -7 3 3 -2 9 -12 12 -14 6 -15 5 -6 -5z"/>
<path d="M6160 951 c0 -6 4 -13 10 -16 6 -3 7 1 4 9 -7 18 -14 21 -14 7z"/>
<path d="M6234 946 c1 -8 5 -18 8 -22 4 -3 5 1 4 10 -1 8 -5 18 -8 22 -4 3 -5
-1 -4 -10z"/>
<path d="M1339 948 c-5 -18 -6 -38 -1 -34 7 8 12 36 6 36 -2 0 -4 -1 -5 -2z"/>
<path d="M1788 943 c6 -2 9 -10 6 -15 -4 -7 -2 -8 5 -4 13 9 5 26 -12 25 -9 0
-8 -2 1 -6z"/>
<path d="M1893 937 c-3 -6 -1 -7 5 -3 7 4 12 2 12 -4 0 -6 5 -8 10 -5 6 3 10
10 10 14 0 11 -30 9 -37 -2z"/>
<path d="M2074 926 c6 -31 23 -56 39 -56 6 0 3 6 -6 13 -10 6 -19 23 -22 36
-2 13 -7 26 -10 30 -4 3 -4 -7 -1 -23z"/>
<path d="M2212 902 c-23 -25 -40 -47 -37 -50 3 -3 17 9 32 26 20 25 29 30 39
21 10 -9 14 -9 14 0 0 6 -5 11 -11 11 -8 0 -7 5 1 15 7 9 11 17 9 18 -2 2 -23
-17 -47 -41z"/>
<path d="M2493 937 c0 -8 6 -14 14 -14 9 0 10 4 2 14 -6 7 -12 13 -14 13 -1 0
-2 -6 -2 -13z"/>
<path d="M6110 943 c0 -5 5 -15 10 -23 7 -12 9 -10 7 8 -1 19 -17 33 -17 15z"/>
<path d="M1702 924 c10 -10 20 -16 22 -13 3 3 -5 11 -17 18 -21 13 -21 12 -5
-5z"/>
<path d="M1935 920 c-3 -5 -1 -10 4 -10 6 0 11 5 11 10 0 6 -2 10 -4 10 -3 0
-8 -4 -11 -10z"/>
<path d="M2038 923 c7 -3 16 -2 19 1 4 3 -2 6 -13 5 -11 0 -14 -3 -6 -6z"/>
<path d="M2130 925 c0 -8 29 -12 39 -5 9 5 4 8 -13 8 -14 0 -26 -2 -26 -3z"/>
<path d="M5805 917 c-26 -30 -27 -39 -2 -21 26 18 35 34 20 34 -5 -1 -13 -6
-18 -13z"/>
<path d="M5930 920 c0 -5 5 -10 10 -10 6 0 10 5 10 10 0 6 -4 10 -10 10 -5 0
-10 -4 -10 -10z"/>
<path d="M6029 920 c-6 -4 1 -7 15 -7 14 0 26 3 26 7 0 3 -7 7 -15 7 -8 0 -19
-4 -26 -7z"/>
<path d="M6186 922 c-3 -5 1 -9 9 -9 8 0 12 4 9 9 -3 4 -7 8 -9 8 -2 0 -6 -4
-9 -8z"/>
<path d="M6456 918 c3 -4 11 -5 19 -1 21 7 19 12 -4 10 -11 0 -18 -5 -15 -9z"/>
<path d="M6595 921 c-3 -5 -2 -12 3 -15 5 -3 9 1 9 9 0 17 -3 19 -12 6z"/>
<path d="M6730 926 c0 -2 7 -7 16 -10 8 -3 12 -2 9 4 -6 10 -25 14 -25 6z"/>
<path d="M1877 913 c-10 -9 -9 -23 1 -23 5 0 9 7 9 15 0 17 -1 18 -10 8z"/>
<path d="M2108 913 c6 -2 10 -9 7 -14 -4 -5 1 -6 10 -2 13 5 14 7 3 14 -7 5
-17 8 -23 8 -5 0 -4 -3 3 -6z"/>
<path d="M5910 915 c0 -5 5 -17 10 -25 5 -8 10 -10 10 -5 0 6 -5 17 -10 25 -5
8 -10 11 -10 5z"/>
<path d="M6071 893 c-10 -26 -10 -27 4 -9 8 11 15 23 15 28 0 15 -7 8 -19 -19z"/>
<path d="M2015 900 c-3 -6 1 -7 9 -4 18 7 21 14 7 14 -6 0 -13 -4 -16 -10z"/>
<path d="M2050 907 c0 -5 9 -20 20 -34 11 -14 20 -22 20 -17 -1 12 -39 61 -40
51z"/>
<path d="M5992 890 c-7 -11 -8 -20 -3 -20 9 0 24 30 18 36 -1 2 -8 -6 -15 -16z"/>
<path d="M6634 902 c4 -3 14 -7 22 -8 9 -1 13 0 10 4 -4 3 -14 7 -22 8 -9 1
-13 0 -10 -4z"/>
<path d="M6696 902 c-3 -5 1 -9 9 -9 8 0 12 4 9 9 -3 4 -7 8 -9 8 -2 0 -6 -4
-9 -8z"/>
<path d="M1695 889 c-4 -6 -5 -12 -2 -15 2 -3 7 2 10 11 7 17 1 20 -8 4z"/>
<path d="M1810 889 c0 -5 -4 -8 -9 -5 -11 7 -8 -21 4 -31 4 -5 5 -2 0 6 -6 11
-4 13 7 8 12 -4 14 -1 11 14 -6 21 -13 26 -13 8z"/>
<path d="M1910 890 c-9 -6 -10 -10 -3 -10 6 0 15 5 18 10 8 12 4 12 -15 0z"/>
<path d="M1948 893 c6 -2 18 -2 25 0 6 3 1 5 -13 5 -14 0 -19 -2 -12 -5z"/>
<path d="M5830 891 c0 -6 -5 -10 -11 -8 -6 1 -14 -5 -16 -13 -4 -12 -3 -12 5
-2 5 8 12 13 16 12 4 -1 12 0 18 2 9 3 9 6 0 12 -7 4 -12 2 -12 -3z"/>
<path d="M6114 889 c-3 -6 -1 -16 6 -22 10 -9 11 -9 5 2 -4 8 -2 17 6 22 9 6
10 9 2 9 -6 0 -15 -5 -19 -11z"/>
<path d="M6193 885 c0 -8 4 -12 9 -9 5 3 6 10 3 15 -9 13 -12 11 -12 -6z"/>
<path d="M6299 898 c-5 -18 -6 -38 -1 -34 7 8 12 36 6 36 -2 0 -4 -1 -5 -2z"/>
<path d="M6456 887 c3 -10 9 -15 12 -12 3 3 0 11 -7 18 -10 9 -11 8 -5 -6z"/>
<path d="M1599 888 c-5 -18 -6 -38 -1 -34 7 8 12 36 6 36 -2 0 -4 -1 -5 -2z"/>
<path d="M1633 866 l-18 -21 24 20 c13 11 25 19 28 17 3 -2 7 -2 9 1 2 2 -3 4
-11 4 -8 0 -23 -10 -32 -21z"/>
<path d="M2033 875 c2 -11 9 -19 15 -17 7 1 12 -7 12 -18 0 -11 -5 -19 -11
-17 -6 1 -14 -5 -16 -13 -4 -12 -3 -12 5 -2 5 8 13 13 18 13 5 -1 9 8 9 19 0
11 -4 20 -10 19 -5 0 -13 8 -17 18 -7 16 -8 16 -5 -2z"/>
<path d="M2235 881 c3 -5 -1 -11 -7 -14 -7 -2 -11 -7 -8 -10 3 -3 13 0 23 8
16 11 16 13 2 19 -9 3 -14 2 -10 -3z"/>
<path d="M5880 880 c-8 -5 -10 -10 -5 -10 6 0 17 5 25 10 8 5 11 10 5 10 -5 0
-17 -5 -25 -10z"/>
<path d="M6032 870 c7 -10 14 -18 15 -16 6 6 -9 36 -18 36 -5 0 -4 -9 3 -20z"/>
<path d="M1710 876 c0 -2 8 -10 18 -17 15 -13 16 -12 3 4 -13 16 -21 21 -21
13z"/>
<path d="M1855 870 c-3 -6 1 -7 9 -4 18 7 21 14 7 14 -6 0 -13 -4 -16 -10z"/>
<path d="M1996 865 c-9 -26 -7 -32 5 -12 6 10 9 21 6 23 -2 3 -7 -2 -11 -11z"/>
<path d="M6150 870 c-11 -7 -11 -10 -2 -10 8 0 10 -5 6 -12 -4 -7 -3 -9 1 -5
7 6 17 37 12 37 -1 0 -9 -5 -17 -10z"/>
<path d="M1376 858 c3 -4 11 -5 19 -1 21 7 19 12 -4 10 -11 0 -18 -5 -15 -9z"/>
<path d="M2111 851 c-22 -17 -22 -49 0 -36 5 4 9 -1 9 -9 0 -9 5 -16 10 -16 7
0 7 7 0 20 -6 11 -15 18 -21 15 -5 -4 -9 -1 -9 4 0 6 4 11 8 11 5 0 17 7 28
15 10 8 15 14 9 14 -5 1 -21 -8 -34 -18z"/>
<path d="M5831 861 c-9 -6 -6 -8 13 -8 14 0 23 3 20 8 -7 11 -15 11 -33 0z"/>
<path d="M5892 858 c-17 -17 3 -46 30 -44 17 1 23 7 23 25 0 27 -33 39 -53 19z
m45 -20 c-1 -18 -27 -21 -39 -3 -10 14 0 24 21 22 12 -1 19 -8 18 -19z"/>
<path d="M6014 862 c5 -8 -1 -12 -16 -13 -18 -1 -19 -2 -4 -6 23 -6 43 12 25
22 -8 5 -10 4 -5 -3z"/>
<path d="M6084 855 c-4 -8 -10 -12 -15 -9 -5 3 -6 -2 -2 -12 5 -14 7 -14 18 5
6 12 15 18 20 14 4 -4 5 -2 1 5 -9 16 -15 15 -22 -3z"/>
<path d="M6195 860 c-16 -7 -17 -9 -3 -9 9 -1 20 4 23 9 7 11 7 11 -20 0z"/>
<path d="M6654 862 c4 -3 14 -7 22 -8 9 -1 13 0 10 4 -4 3 -14 7 -22 8 -9 1
-13 0 -10 -4z"/>
<path d="M1693 845 c0 -8 3 -13 5 -10 3 3 12 -1 21 -7 10 -8 9 -4 -3 10 -23
26 -23 26 -23 7z"/>
<path d="M1955 850 c3 -5 8 -10 11 -10 2 0 4 5 4 10 0 6 -5 10 -11 10 -5 0 -7
-4 -4 -10z"/>
<path d="M2196 845 c-3 -8 -1 -15 4 -15 6 0 10 7 10 15 0 8 -2 15 -4 15 -2 0
-6 -7 -10 -15z"/>
<path d="M2271 841 c13 -11 21 -22 17 -26 -4 -4 -14 0 -23 9 -9 9 -24 16 -33
15 -13 0 -12 -2 4 -9 23 -9 41 -30 27 -30 -5 0 -14 5 -20 11 -9 9 -11 4 -8
-19 3 -25 1 -30 -13 -26 -14 5 -14 4 -2 -4 19 -14 32 -5 25 19 -9 26 -1 24 40
-13 24 -20 32 -34 25 -38 -9 -5 -9 -9 -1 -14 10 -6 13 0 10 20 0 4 5 11 13 16
10 8 10 9 -2 5 -8 -2 -26 6 -40 19 -28 28 -22 30 20 9 17 -9 30 -11 30 -5 0 5
-8 10 -17 10 -16 0 -16 2 -3 11 11 8 9 9 -10 3 -22 -6 -23 -5 -11 9 7 9 17 14
22 11 5 -3 9 0 9 6 0 7 -8 9 -22 4 -20 -6 -21 -5 -9 10 9 10 10 16 2 16 -6 0
-11 -5 -11 -12 0 -9 -3 -9 -12 0 -7 7 -16 12 -21 12 -5 0 1 -9 14 -19z"/>
<path d="M6253 847 c0 -8 6 -14 14 -14 9 0 10 4 2 14 -6 7 -12 13 -14 13 -1 0
-2 -6 -2 -13z"/>
<path d="M1830 840 c0 -5 5 -10 10 -10 6 0 10 5 10 10 0 6 -4 10 -10 10 -5 0
-10 -4 -10 -10z"/>
<path d="M1890 842 c0 -4 12 -8 28 -9 23 -1 24 -1 7 7 -26 11 -35 12 -35 2z"/>
<path d="M2010 840 c0 -5 5 -10 10 -10 6 0 10 5 10 10 0 6 -4 10 -10 10 -5 0
-10 -4 -10 -10z"/>
<path d="M2140 839 c-13 -9 -12 -10 2 -5 10 3 20 1 23 -4 4 -6 1 -10 -4 -10
-6 0 -11 -5 -11 -11 0 -8 6 -7 17 2 15 12 16 12 10 -4 -4 -11 -5 -23 -1 -28 8
-14 44 9 43 29 -1 15 -2 15 -6 0 -2 -9 -11 -19 -19 -22 -11 -4 -14 -1 -10 12
8 26 -24 55 -44 41z"/>
<path d="M5717 809 c-45 -46 -37 -53 10 -7 27 26 35 29 48 18 19 -16 20 -3 1
16 -18 17 -14 19 -59 -27z"/>
<path d="M6311 847 c2 -1 13 -9 24 -17 19 -14 19 -14 6 3 -7 9 -18 17 -24 17
-6 0 -8 -1 -6 -3z"/>
<path d="M5822 824 c-20 -14 -22 -42 -2 -29 4 3 11 -2 14 -11 3 -8 10 -13 15
-9 6 3 9 -4 8 -15 -1 -11 -7 -20 -14 -20 -6 0 -11 -9 -10 -19 0 -11 5 -17 9
-15 5 3 6 9 3 14 -3 4 1 10 9 13 16 7 15 53 -2 50 -13 -3 -17 13 -4 20 4 2 2
3 -5 1 -22 -5 -23 10 -1 23 13 7 18 12 13 13 -6 0 -21 -7 -33 -16z"/>
<path d="M6030 831 c0 -7 -5 -9 -12 -5 -7 5 -8 3 -3 -5 5 -9 10 -10 18 -2 6 6
8 14 4 18 -4 3 -7 1 -7 -6z"/>
<path d="M1315 819 c-3 -4 2 -6 10 -5 21 3 28 13 10 13 -9 0 -18 -4 -20 -8z"/>
<path d="M1376 822 c-3 -4 4 -9 15 -9 23 -2 25 3 4 10 -8 4 -16 3 -19 -1z"/>
<path d="M1753 810 c6 -8 12 -16 13 -18 1 -1 4 5 6 15 4 13 0 19 -13 19 -14 0
-16 -3 -6 -16z"/>
<path d="M1876 818 c5 -7 2 -9 -9 -5 -11 4 -14 2 -10 -9 4 -11 9 -12 19 -3 12
10 11 29 -2 29 -3 0 -2 -5 2 -12z"/>
<path d="M1953 823 c4 -3 1 -13 -6 -22 -11 -14 -10 -14 6 -2 20 15 22 31 5 31
-6 0 -8 -3 -5 -7z"/>
<path d="M5874 806 c3 -16 8 -31 11 -35 3 -3 4 7 1 23 -3 16 -8 31 -11 35 -3
3 -4 -7 -1 -23z"/>
<path d="M6110 820 c0 -5 5 -10 10 -10 6 0 10 5 10 10 0 6 -4 10 -10 10 -5 0
-10 -4 -10 -10z"/>
<path d="M6190 826 c0 -2 7 -7 16 -10 8 -3 12 -2 9 4 -6 10 -25 14 -25 6z"/>
<path d="M6285 819 c-4 -6 -14 -8 -24 -5 -14 5 -14 4 1 -7 14 -11 15 -16 5
-27 -10 -12 -9 -12 6 -1 9 8 15 16 12 19 -3 3 0 11 6 19 6 7 9 13 6 13 -3 0
-9 -5 -12 -11z"/>
<path d="M1593 807 c0 -8 6 -14 14 -14 9 0 10 4 2 14 -6 7 -12 13 -14 13 -1 0
-2 -6 -2 -13z"/>
<path d="M1699 807 c8 -9 16 -15 19 -12 3 3 12 -1 21 -8 14 -11 14 -10 2 6 -8
9 -16 15 -19 12 -3 -3 -12 1 -21 8 -14 11 -14 10 -2 -6z"/>
<path d="M1427 799 c7 -7 15 -10 18 -7 3 3 -2 9 -12 12 -14 6 -15 5 -6 -5z"/>
<path d="M1985 800 c3 -5 8 -10 11 -10 2 0 4 5 4 10 0 6 -5 10 -11 10 -5 0 -7
-4 -4 -10z"/>
<path d="M2060 799 c-12 -9 -12 -10 3 -5 27 9 41 -4 21 -18 -13 -10 -14 -15
-4 -21 8 -5 11 -4 7 2 -4 6 0 14 9 17 13 5 14 9 4 21 -15 18 -20 18 -40 4z"/>
<path d="M5743 795 c-20 -23 -15 -30 7 -10 11 10 20 13 20 7 0 -6 -4 -14 -10
-17 -14 -8 -13 -25 2 -25 6 0 8 3 5 7 -4 3 -2 12 4 19 10 13 5 34 -9 34 -4 -1
-13 -7 -19 -15z"/>
<path d="M5956 799 c2 -4 -1 -9 -8 -11 -6 -2 -12 -16 -12 -30 -1 -15 2 -24 7
-21 4 3 7 12 5 21 -2 10 5 24 16 33 16 13 16 16 3 16 -9 0 -14 -4 -11 -8z"/>
<path d="M6035 801 c-6 -11 13 -26 22 -17 4 3 1 6 -6 6 -7 0 -9 5 -6 10 3 6 4
10 1 10 -3 0 -7 -4 -11 -9z"/>
<path d="M6159 808 c-6 -20 -5 -38 1 -48 5 -7 7 0 6 19 -1 26 -4 39 -7 29z"/>
<path d="M5908 793 c7 -3 16 -2 19 1 4 3 -2 6 -13 5 -11 0 -14 -3 -6 -6z"/>
<path d="M6076 791 c-3 -5 1 -11 9 -14 9 -4 12 -1 8 9 -6 16 -10 17 -17 5z"/>
<path d="M6231 787 c-8 -10 -7 -14 2 -14 8 0 14 6 14 14 0 7 -1 13 -2 13 -2 0
-8 -6 -14 -13z"/>
<path d="M1670 782 c0 -5 7 -9 15 -9 8 0 12 4 9 9 -3 4 -9 8 -15 8 -5 0 -9 -4
-9 -8z"/>
<path d="M1955 780 c-3 -5 -1 -10 4 -10 6 0 11 5 11 10 0 6 -2 10 -4 10 -3 0
-8 -4 -11 -10z"/>
<path d="M2030 780 c0 -6 7 -10 15 -10 8 0 15 2 15 4 0 2 -7 6 -15 10 -8 3
-15 1 -15 -4z"/>
<path d="M2153 772 c0 -12 5 -22 9 -22 11 0 10 12 -2 30 -7 12 -9 10 -7 -8z"/>
<path d="M5794 782 c3 -6 3 -12 -1 -15 -5 -2 -3 -2 4 -1 7 2 15 -1 18 -6 4 -6
1 -11 -4 -11 -6 -1 -15 -2 -21 -3 -11 -1 -39 -37 -40 -51 0 -5 9 4 20 20 11
17 20 26 20 22 0 -4 9 -3 20 3 25 14 25 22 -1 38 -12 8 -18 9 -15 4z"/>
<path d="M5992 776 c7 -8 15 -10 16 -5 2 5 9 6 15 2 7 -3 9 -2 4 2 -4 5 -17
10 -28 12 -16 2 -18 1 -7 -11z"/>
<path d="M6576 778 c3 -4 11 -5 19 -1 21 7 19 12 -4 10 -11 0 -18 -5 -15 -9z"/>
<path d="M1615 769 c-4 -6 -5 -12 -2 -15 2 -3 7 2 10 11 7 17 1 20 -8 4z"/>
<path d="M1724 762 c23 -26 23 -26 23 -7 0 8 -3 13 -5 10 -3 -3 -12 1 -21 7
-10 8 -9 4 3 -10z"/>
<path d="M1861 764 c0 -11 3 -14 6 -6 3 7 2 16 -1 19 -3 4 -6 -2 -5 -13z"/>
<path d="M1915 771 c-3 -5 0 -13 6 -17 7 -4 9 -3 5 4 -3 5 0 13 6 15 9 4 10 6
1 6 -6 1 -14 -3 -18 -8z"/>
<path d="M1980 771 c0 -6 4 -13 10 -16 6 -3 7 1 4 9 -7 18 -14 21 -14 7z"/>
<path d="M2116 772 c-3 -5 1 -9 9 -9 8 0 12 4 9 9 -3 4 -7 8 -9 8 -2 0 -6 -4
-9 -8z"/>
<path d="M6313 765 c0 -8 4 -12 9 -9 5 3 6 10 3 15 -9 13 -12 11 -12 -6z"/>
<path d="M1791 747 c-13 -21 -12 -21 5 -5 10 10 16 20 13 22 -3 3 -11 -5 -18
-17z"/>
<path d="M2256 754 c-4 -9 -4 -19 -1 -22 2 -3 7 3 11 12 4 9 4 19 1 22 -2 3
-7 -3 -11 -12z"/>
<path d="M5702 761 c-11 -6 -10 -10 5 -16 10 -5 21 -7 26 -7 12 3 8 -16 -5
-21 -10 -4 -10 -6 -1 -6 22 -2 26 21 7 40 -12 11 -24 15 -32 10z"/>
<path d="M5900 766 c0 -2 7 -7 16 -10 8 -3 12 -2 9 4 -6 10 -25 14 -25 6z"/>
<path d="M5965 760 c-3 -6 1 -7 9 -4 18 7 21 14 7 14 -6 0 -13 -4 -16 -10z"/>
<path d="M6042 758 c-15 -15 -15 -28 -1 -28 5 0 8 4 4 9 -3 6 3 14 12 20 10 6
13 11 8 11 -6 0 -16 -5 -23 -12z"/>
<path d="M6114 762 c4 -3 14 -7 22 -8 9 -1 13 0 10 4 -4 3 -14 7 -22 8 -9 1
-13 0 -10 -4z"/>
<path d="M2182 748 c-7 -7 -12 -17 -12 -22 0 -6 5 -3 11 7 8 14 14 16 25 6 8
-6 17 -9 20 -6 3 3 -3 10 -14 16 -13 7 -22 7 -30 -1z"/>
<path d="M5652 741 c-22 -19 -28 -31 -14 -31 7 1 46 50 39 50 -2 0 -14 -8 -25
-19z"/>
<path d="M5881 753 c-1 -17 16 -25 25 -12 4 7 3 9 -4 5 -5 -3 -13 0 -15 6 -4
9 -6 10 -6 1z"/>
<path d="M6189 743 c-13 -16 -12 -17 4 -4 16 13 21 21 13 21 -2 0 -10 -8 -17
-17z"/>
<path d="M1535 740 c3 -5 8 -10 11 -10 2 0 4 5 4 10 0 6 -5 10 -11 10 -5 0 -7
-4 -4 -10z"/>
<path d="M1947 729 c4 -13 8 -18 11 -10 2 7 -1 18 -6 23 -8 8 -9 4 -5 -13z"/>
<path d="M2054 739 c-4 -7 -3 -9 4 -5 5 3 13 0 15 -6 4 -9 6 -10 6 -1 1 17
-16 25 -25 12z"/>
<path d="M2110 741 c8 -5 18 -7 23 -4 5 3 6 -5 3 -18 -6 -21 -6 -22 4 -6 14
21 8 30 -23 34 -17 2 -19 1 -7 -6z"/>
<path d="M2276 735 c-3 -9 -6 -22 -5 -28 0 -7 5 -1 10 12 5 13 8 26 5 28 -2 2
-6 -3 -10 -12z"/>
<path d="M6122 729 c9 -9 15 -19 13 -23 -3 -3 -2 -4 2 -1 11 9 12 36 2 29 -6
-3 -16 -2 -22 3 -7 4 -5 1 5 -8z"/>
<path d="M6266 738 c3 -4 9 -8 15 -8 5 0 9 4 9 8 0 5 -7 9 -15 9 -8 0 -12 -4
-9 -9z"/>
<path d="M1817 733 c-10 -9 -9 -23 1 -23 5 0 9 7 9 15 0 17 -1 18 -10 8z"/>
<path d="M2011 724 c0 -11 3 -14 6 -6 3 7 2 16 -1 19 -3 4 -6 -2 -5 -13z"/>
<path d="M2336 723 c-4 -9 -3 -20 2 -25 6 -6 10 1 10 16 0 30 -3 32 -12 9z"/>
<path d="M5677 734 c-3 -4 1 -13 11 -21 15 -13 15 -13 -8 -8 -22 5 -23 4 -7
-5 10 -7 21 -9 25 -6 9 10 11 37 2 31 -5 -3 -10 0 -12 6 -2 5 -7 7 -11 3z"/>
<path d="M1714 722 c4 -3 14 -7 22 -8 9 -1 13 0 10 4 -4 3 -14 7 -22 8 -9 1
-13 0 -10 -4z"/>
<path d="M1973 715 c0 -7 6 -11 14 -8 7 3 13 6 13 8 0 2 -6 5 -13 8 -8 3 -14
-1 -14 -8z"/>
<path d="M2095 720 c3 -5 8 -10 11 -10 2 0 4 5 4 10 0 6 -5 10 -11 10 -5 0 -7
-4 -4 -10z"/>
<path d="M2190 725 c0 -5 5 -17 10 -25 5 -8 10 -10 10 -5 0 6 -5 17 -10 25 -5
8 -10 11 -10 5z"/>
<path d="M5805 719 c-4 -6 -5 -12 -2 -15 2 -3 7 2 10 11 7 17 1 20 -8 4z"/>
<path d="M5874 722 c3 -5 0 -13 -6 -15 -9 -4 -10 -6 -1 -6 17 -1 25 16 12 25
-7 4 -9 3 -5 -4z"/>
<path d="M6465 720 c-3 -6 1 -7 9 -4 18 7 21 14 7 14 -6 0 -13 -4 -16 -10z"/>
<path d="M1493 705 c0 -8 4 -12 9 -9 5 3 6 10 3 15 -9 13 -12 11 -12 -6z"/>
<path d="M2220 716 c0 -2 7 -6 15 -10 8 -3 15 -1 15 4 0 6 -7 10 -15 10 -8 0
-15 -2 -15 -4z"/>
<path d="M5574 705 c-11 -8 -14 -15 -7 -15 6 0 15 5 18 10 5 8 11 7 21 -1 8
-6 17 -9 20 -6 3 3 -3 10 -14 16 -14 8 -24 7 -38 -4z"/>
<path d="M1035 700 c-3 -5 -1 -10 4 -10 6 0 11 5 11 10 0 6 -2 10 -4 10 -3 0
-8 -4 -11 -10z"/>
<path d="M1755 701 c-3 -5 -2 -12 3 -15 5 -3 9 1 9 9 0 17 -3 19 -12 6z"/>
<path d="M1877 688 c19 -21 31 -25 14 -5 -6 8 -9 16 -6 19 3 2 -2 5 -10 5 -13
0 -13 -3 2 -19z"/>
<path d="M2034 695 c3 -23 12 -26 13 -5 1 11 -2 20 -7 20 -4 0 -7 -7 -6 -15z"/>
<path d="M2150 698 c0 -6 7 -7 16 -4 12 5 15 2 10 -9 -4 -11 -2 -14 6 -9 8 5
9 1 4 -12 -5 -14 -4 -16 4 -7 8 7 9 17 2 29 -11 19 -42 28 -42 12z"/>
<path d="M2295 688 c6 -23 4 -26 -13 -21 -11 2 -22 1 -25 -4 -3 -5 7 -8 21 -7
30 1 42 28 22 48 -9 8 -10 5 -5 -16z"/>
<path d="M2409 694 c-13 -16 -12 -16 10 -4 20 10 23 10 18 -2 -3 -8 -1 -21 4
-29 5 -9 7 -5 6 15 -3 35 -19 43 -38 20z"/>
<path d="M5775 701 c-6 -11 13 -26 22 -17 4 3 1 6 -6 6 -7 0 -9 5 -6 10 3 6 4
10 1 10 -3 0 -7 -4 -11 -9z"/>
<path d="M5895 700 c-4 -6 1 -7 11 -3 13 5 15 3 9 -7 -5 -9 -4 -11 4 -6 6 4 9
12 6 17 -8 12 -22 12 -30 -1z"/>
<path d="M5990 703 c0 -5 5 -15 10 -23 7 -12 9 -10 7 8 -1 19 -17 33 -17 15z"/>
<path d="M6075 700 c-16 -7 -17 -9 -3 -9 9 -1 20 4 23 9 7 11 7 11 -20 0z"/>
<path d="M6515 699 c-3 -4 2 -6 10 -5 21 3 28 13 10 13 -9 0 -18 -4 -20 -8z"/>
<path d="M5530 690 c0 -6 7 -13 15 -16 8 -4 12 -10 9 -15 -3 -5 3 -6 12 -2 13
5 15 3 9 -7 -6 -9 -4 -11 5 -5 10 6 9 11 -5 22 -11 7 -23 13 -28 13 -4 0 -5 5
-2 10 3 6 1 10 -4 10 -6 0 -11 -5 -11 -10z"/>
<path d="M5641 697 c-2 -17 20 -47 30 -42 5 4 9 2 9 -4 0 -5 -5 -11 -12 -13
-8 -3 -7 -6 4 -10 11 -5 15 0 14 15 -1 13 -8 21 -15 19 -9 -2 -11 3 -7 13 3 9
2 14 -3 10 -5 -3 -12 1 -14 7 -3 7 -6 9 -6 5z"/>
<path d="M6177 693 c-10 -9 -9 -23 1 -23 5 0 9 7 9 15 0 17 -1 18 -10 8z"/>
<path d="M1830 678 c0 -6 3 -8 7 -5 3 4 13 1 22 -6 14 -11 14 -10 2 6 -15 20
-31 22 -31 5z"/>
<path d="M1970 681 c0 -6 4 -13 10 -16 6 -3 7 1 4 9 -7 18 -14 21 -14 7z"/>
<path d="M2228 683 c6 -3 9 -10 5 -16 -4 -7 2 -5 13 3 10 8 20 15 22 16 2 1
-10 1 -25 1 -15 0 -22 -2 -15 -4z"/>
<path d="M2355 680 c-13 -6 -15 -9 -5 -9 8 0 22 4 30 9 18 12 2 12 -25 0z"/>
<path d="M2460 678 c0 -4 5 -8 12 -8 9 0 9 -3 0 -12 -15 -15 -15 -28 -1 -28 5
0 8 4 4 9 -3 6 3 14 12 20 11 6 13 11 5 11 -7 0 -11 4 -8 8 3 5 -1 9 -9 9 -8
0 -15 -4 -15 -9z"/>
<path d="M5503 674 c-19 -19 -16 -29 3 -13 15 12 16 11 11 -6 -4 -11 -2 -27 4
-35 8 -11 9 -9 3 10 -6 22 -5 23 10 11 9 -8 19 -11 23 -7 3 3 1 6 -5 6 -6 0
-17 11 -24 24 -11 20 -15 22 -25 10z"/>
<path d="M5590 680 c0 -6 7 -10 15 -10 8 0 15 2 15 4 0 2 -7 6 -15 10 -8 3
-15 1 -15 -4z"/>
<path d="M5700 680 c-18 -12 -2 -12 25 0 13 6 15 9 5 9 -8 0 -22 -4 -30 -9z"/>
<path d="M5810 680 c0 -5 5 -10 10 -10 6 0 10 5 10 10 0 6 -4 10 -10 10 -5 0
-10 -4 -10 -10z"/>
<path d="M5855 680 c3 -5 8 -10 11 -10 2 0 4 5 4 10 0 6 -5 10 -11 10 -5 0 -7
-4 -4 -10z"/>
<path d="M6099 673 c-13 -16 -12 -17 4 -4 9 7 17 15 17 17 0 8 -8 3 -21 -13z"/>
<path d="M5755 669 c-4 -6 -5 -12 -2 -15 2 -3 7 2 10 11 7 17 1 20 -8 4z"/>
<path d="M6029 663 c-13 -16 -12 -17 4 -4 9 7 17 15 17 17 0 8 -8 3 -21 -13z"/>
<path d="M1510 665 c0 -7 30 -13 34 -7 3 4 -4 9 -15 9 -10 1 -19 0 -19 -2z"/>
<path d="M2316 654 c-8 -20 -8 -24 2 -24 4 0 8 9 9 20 2 24 -3 26 -11 4z"/>
<path d="M2379 667 c-6 -20 -5 -37 3 -37 6 0 7 7 4 15 -4 11 0 15 12 13 9 -2
20 -12 24 -23 6 -17 7 -17 5 4 -1 17 -9 25 -24 27 -13 2 -23 3 -24 1z"/>
<path d="M5634 646 c3 -16 8 -31 11 -35 3 -3 4 7 1 23 -3 16 -8 31 -11 35 -3
3 -4 -7 -1 -23z"/>
<path d="M5779 668 c0 -2 -2 -13 -3 -25 -2 -15 2 -19 12 -15 9 3 13 1 9 -5 -3
-5 0 -10 7 -10 11 0 12 4 3 19 -7 10 -15 18 -20 18 -4 0 -5 5 -2 10 3 6 4 10
1 10 -3 0 -6 -1 -7 -2z"/>
<path d="M5835 661 c-9 -15 15 -25 28 -12 9 9 7 10 -7 5 -13 -5 -17 -4 -12 4
4 7 5 12 2 12 -3 0 -7 -4 -11 -9z"/>
<path d="M5946 656 c5 -12 4 -17 -3 -13 -5 3 -10 -1 -10 -9 0 -13 2 -13 16 0
12 13 13 18 2 28 -10 11 -11 9 -5 -6z"/>
<path d="M6390 665 c0 -7 30 -13 34 -7 3 4 -4 9 -15 9 -10 1 -19 0 -19 -2z"/>
<path d="M6493 655 c0 -8 4 -12 9 -9 5 3 6 10 3 15 -9 13 -12 11 -12 -6z"/>
<path d="M2070 653 c5 -2 8 -9 4 -14 -3 -5 0 -9 6 -9 15 0 7 23 -8 26 -7 1 -8
0 -2 -3z"/>
<path d="M5473 640 c1 -14 6 -24 11 -22 5 2 17 -9 27 -25 10 -15 19 -23 19
-18 -1 14 -39 62 -41 50 0 -5 -5 1 -10 15 l-8 25 2 -25z"/>
<path d="M5716 645 c3 -8 10 -13 14 -10 5 3 11 -1 13 -7 4 -10 6 -10 6 -1 1 7
-8 17 -19 23 -16 9 -18 8 -14 -5z"/>
<path d="M6051 647 c-8 -10 -7 -14 2 -14 8 0 14 6 14 14 0 7 -1 13 -2 13 -2 0
-8 -6 -14 -13z"/>
<path d="M6150 656 c0 -2 8 -10 18 -17 15 -13 16 -12 3 4 -13 16 -21 21 -21
13z"/>
<path d="M6273 645 c0 -8 4 -15 9 -15 4 0 8 4 8 9 0 6 -4 12 -8 15 -5 3 -9 -1
-9 -9z"/>
<path d="M1805 639 c-3 -4 2 -6 10 -5 21 3 28 13 10 13 -9 0 -18 -4 -20 -8z"/>
<path d="M2004 642 c4 -3 14 -7 22 -8 9 -1 13 0 10 4 -4 3 -14 7 -22 8 -9 1
-13 0 -10 -4z"/>
<path d="M2210 640 c0 -5 5 -10 10 -10 6 0 10 5 10 10 0 6 -4 10 -10 10 -5 0
-10 -4 -10 -10z"/>
<path d="M5594 635 c-4 -8 -11 -12 -17 -8 -6 3 -7 1 -3 -5 9 -15 9 -15 29 8 9
11 12 20 7 20 -6 0 -13 -7 -16 -15z"/>
<path d="M6096 638 c3 -5 10 -6 15 -3 13 9 11 12 -6 12 -8 0 -12 -4 -9 -9z"/>
<path d="M6193 635 c0 -8 4 -12 9 -9 5 3 6 10 3 15 -9 13 -12 11 -12 -6z"/>
<path d="M6240 640 c-9 -6 -10 -10 -3 -10 6 0 15 5 18 10 8 12 4 12 -15 0z"/>
<path d="M1614 622 c4 -3 14 -7 22 -8 9 -1 13 0 10 4 -4 3 -14 7 -22 8 -9 1
-13 0 -10 -4z"/>
<path d="M2100 625 c0 -2 6 -8 13 -14 10 -8 14 -7 14 2 0 8 -6 14 -14 14 -7 0
-13 -1 -13 -2z"/>
<path d="M2148 623 c6 -2 18 -2 25 0 6 3 1 5 -13 5 -14 0 -19 -2 -12 -5z"/>
<path d="M2295 621 c6 -11 4 -13 -10 -7 -18 7 -18 6 0 -14 10 -11 19 -20 20
-20 6 0 -3 41 -10 47 -4 5 -4 2 0 -6z"/>
<path d="M2353 615 c0 -7 6 -11 14 -8 7 3 13 6 13 8 0 2 -6 5 -13 8 -8 3 -14
-1 -14 -8z"/>
<path d="M2395 620 c-3 -5 -1 -10 4 -10 6 0 11 5 11 10 0 6 -2 10 -4 10 -3 0
-8 -4 -11 -10z"/>
<path d="M2436 615 c-9 -26 -7 -32 5 -12 6 10 9 21 6 23 -2 3 -7 -2 -11 -11z"/>
<path d="M2676 615 c-3 -9 -6 -22 -5 -28 0 -7 5 -1 10 12 5 13 8 26 5 28 -2 2
-6 -3 -10 -12z"/>
<path d="M5616 617 c3 -10 9 -15 12 -12 3 3 0 11 -7 18 -10 9 -11 8 -5 -6z"/>
<path d="M6334 616 c1 -8 5 -18 8 -22 4 -3 5 1 4 10 -1 8 -5 18 -8 22 -4 3 -5
-1 -4 -10z"/>
<path d="M1793 605 c0 -8 4 -12 9 -9 5 3 6 10 3 15 -9 13 -12 11 -12 -6z"/>
<path d="M2326 603 c-6 -14 -5 -15 5 -6 7 7 10 15 7 18 -3 3 -9 -2 -12 -12z"/>
<path d="M3061 601 c-9 -16 -8 -21 8 -26 20 -6 22 -20 6 -45 -8 -13 -7 -13 8
-1 15 12 17 11 17 -7 0 -15 -5 -19 -19 -15 -22 6 -37 -12 -20 -23 8 -5 9 -3 4
6 -6 10 -3 12 14 7 25 -6 38 13 25 41 -4 9 -8 30 -8 46 -1 35 -21 45 -35 17z
m29 0 c0 -6 -4 -13 -10 -16 -5 -3 -10 1 -10 9 0 9 5 16 10 16 6 0 10 -4 10 -9z"/>
<path d="M5272 604 c-7 -8 -8 -14 -3 -14 10 0 25 19 20 25 -2 1 -10 -3 -17
-11z"/>
<path d="M5715 609 c-4 -6 -5 -12 -2 -15 2 -3 7 2 10 11 7 17 1 20 -8 4z"/>
<path d="M5898 609 c12 -16 74 -20 88 -7 3 3 -12 5 -33 3 -21 -1 -45 2 -53 9
-13 9 -13 9 -2 -5z"/>
<path d="M1695 600 c-3 -5 -1 -10 4 -10 6 0 11 5 11 10 0 6 -2 10 -4 10 -3 0
-8 -4 -11 -10z"/>
<path d="M1953 595 c0 -8 4 -12 9 -9 5 3 6 10 3 15 -9 13 -12 11 -12 -6z"/>
<path d="M2090 601 c0 -6 4 -13 10 -16 6 -3 7 1 4 9 -7 18 -14 21 -14 7z"/>
<path d="M2139 593 c-13 -16 -12 -17 4 -4 14 11 20 11 35 0 15 -13 16 -12 3 4
-7 9 -17 17 -21 17 -4 0 -14 -8 -21 -17z"/>
<path d="M2468 603 c6 -2 9 -10 6 -15 -4 -7 -2 -8 4 -4 18 11 14 26 -5 25 -11
0 -13 -3 -5 -6z"/>
<path d="M2610 600 c0 -5 5 -10 10 -10 6 0 10 5 10 10 0 6 -4 10 -10 10 -5 0
-10 -4 -10 -10z"/>
<path d="M4910 600 c0 -5 5 -10 11 -10 5 0 7 5 4 10 -3 6 -8 10 -11 10 -2 0
-4 -4 -4 -10z"/>
<path d="M5391 593 c7 -12 15 -20 18 -17 3 2 -3 12 -13 22 -17 16 -18 16 -5
-5z"/>
<path d="M5450 602 c0 -5 7 -9 15 -9 8 0 12 4 9 9 -3 4 -9 8 -15 8 -5 0 -9 -4
-9 -8z"/>
<path d="M5540 599 c0 -9 31 -21 38 -14 3 3 0 5 -7 5 -7 0 -10 4 -7 8 3 5 -1
9 -9 9 -8 0 -15 -4 -15 -8z"/>
<path d="M5759 603 c0 -5 -3 -19 -5 -32 -2 -14 -2 -22 1 -19 8 8 17 58 10 58
-3 0 -5 -3 -6 -7z"/>
<path d="M6425 600 c-3 -6 1 -7 9 -4 18 7 21 14 7 14 -6 0 -13 -4 -16 -10z"/>
<path d="M2636 585 c-9 -26 -7 -32 5 -12 6 10 9 21 6 23 -2 3 -7 -2 -11 -11z"/>
<path d="M2390 583 c5 -2 8 -9 5 -13 -3 -5 -1 -11 4 -14 5 -4 8 2 7 11 -2 9
-8 18 -15 19 -6 1 -7 0 -1 -3z"/>
<path d="M2494 579 c-5 -8 -3 -9 6 -4 10 6 12 2 8 -17 -3 -15 0 -25 7 -25 7 0
10 10 7 24 -5 28 -18 38 -28 22z"/>
<path d="M2550 580 c0 -5 5 -10 10 -10 6 0 10 5 10 10 0 6 -4 10 -10 10 -5 0
-10 -4 -10 -10z"/>
<path d="M3025 570 c-4 -12 -11 -17 -18 -13 -7 4 -6 -1 2 -10 14 -18 46 -23
55 -8 3 4 -3 18 -13 30 l-19 22 -7 -21z m25 -15 c10 -13 9 -15 -8 -15 -15 0
-20 5 -16 15 4 8 7 15 9 15 1 0 8 -7 15 -15z"/>
<path d="M5060 570 c-14 -25 -7 -37 19 -35 30 2 34 10 14 26 -9 8 -14 9 -10 3
4 -7 0 -14 -8 -18 -18 -6 -19 -1 -5 25 6 10 8 19 6 19 -3 0 -10 -9 -16 -20z"/>
<path d="M5140 570 c-6 -11 -7 -20 -3 -20 4 0 -2 -7 -13 -16 -18 -14 -18 -15
3 -4 13 6 22 14 22 18 -3 20 2 33 11 27 6 -3 10 -1 10 4 0 18 -19 12 -30 -9z"/>
<path d="M5210 581 c0 -5 5 -13 10 -16 6 -3 10 -2 10 4 0 5 -4 13 -10 16 -5 3
-10 2 -10 -4z"/>
<path d="M5280 578 c-12 -8 -11 -9 4 -4 13 5 17 2 12 -9 -3 -8 -1 -15 4 -15
12 0 13 27 2 34 -4 2 -14 0 -22 -6z"/>
<path d="M5494 582 c3 -5 0 -13 -6 -15 -9 -4 -10 -6 -1 -6 17 -1 25 16 12 25
-7 4 -9 3 -5 -4z"/>
<path d="M2213 567 c0 -8 6 -14 14 -14 9 0 10 4 2 14 -6 7 -12 13 -14 13 -1 0
-2 -6 -2 -13z"/>
<path d="M2586 564 c-20 -19 -20 -25 -2 -18 8 3 17 12 20 20 7 18 1 18 -18 -2z"/>
<path d="M2975 570 c3 -5 8 -10 11 -10 2 0 4 5 4 10 0 6 -5 10 -11 10 -5 0 -7
-4 -4 -10z"/>
<path d="M4902 568 c7 -4 9 -8 4 -8 -5 0 -3 -6 3 -14 9 -11 9 -15 -1 -18 -8
-3 -6 -7 6 -11 9 -4 15 -3 12 2 -6 9 22 26 37 23 4 -1 7 3 7 9 0 6 -7 9 -15 6
-8 -4 -17 -2 -20 3 -3 4 1 10 7 12 7 3 -2 5 -20 5 -21 0 -28 -3 -20 -9z m33
-18 c3 -5 2 -10 -4 -10 -5 0 -13 5 -16 10 -3 6 -2 10 4 10 5 0 13 -4 16 -10z"/>
<path d="M5250 565 c0 -8 4 -15 10 -15 5 0 7 7 4 15 -4 8 -8 15 -10 15 -2 0
-4 -7 -4 -15z"/>
<path d="M5430 570 c-13 -8 -12 -10 3 -10 9 0 17 5 17 10 0 12 -1 12 -20 0z"/>
<path d="M5668 573 c7 -3 16 -2 19 1 4 3 -2 6 -13 5 -11 0 -14 -3 -6 -6z"/>
<path d="M5910 577 c0 -2 6 -10 14 -16 11 -9 16 -9 22 1 4 7 4 10 -1 6 -4 -4
-14 -3 -22 3 -7 6 -13 9 -13 6z"/>
<path d="M2359 568 c-4 -12 -5 -57 0 -53 6 6 10 55 4 55 -1 0 -3 -1 -4 -2z"/>
<path d="M2445 560 c-3 -6 1 -7 9 -4 18 7 21 14 7 14 -6 0 -13 -4 -16 -10z"/>
<path d="M2651 567 c2 -2 11 -8 20 -15 12 -9 16 -9 16 1 0 7 -9 14 -20 14 -11
1 -18 1 -16 0z"/>
<path d="M2768 553 c11 -18 42 -27 42 -11 0 6 -7 8 -15 4 -9 -3 -15 0 -15 9 0
8 -5 15 -10 15 -7 0 -8 -6 -2 -17z"/>
<path d="M2821 552 c0 -11 2 -12 6 -4 2 6 9 10 13 7 5 -3 11 -2 14 3 2 4 -4 9
-15 9 -12 1 -19 -4 -18 -15z"/>
<path d="M2921 550 c-13 -11 -19 -20 -13 -20 5 0 15 7 22 15 17 20 31 19 24
-2 -5 -15 -4 -15 4 -3 11 14 7 30 -6 30 -4 -1 -18 -10 -31 -20z"/>
<path d="M5170 560 c-11 -7 -11 -10 -2 -10 7 0 10 -5 6 -12 -4 -7 -3 -8 5 -4
6 4 8 12 5 18 -5 8 -1 9 10 5 10 -4 15 -3 11 3 -8 12 -16 12 -35 0z"/>
<path d="M5606 562 c-3 -5 1 -9 9 -9 8 0 15 4 15 9 0 4 -4 8 -9 8 -6 0 -12 -4
-15 -8z"/>
<path d="M6210 560 c0 -5 5 -10 11 -10 5 0 7 5 4 10 -3 6 -8 10 -11 10 -2 0
-4 -4 -4 -10z"/>
<path d="M1846 542 c-3 -5 1 -9 9 -9 8 0 12 4 9 9 -3 4 -7 8 -9 8 -2 0 -6 -4
-9 -8z"/>
<path d="M1896 538 c3 -5 10 -6 15 -3 13 9 11 12 -6 12 -8 0 -12 -4 -9 -9z"/>
<path d="M2467 539 c7 -7 15 -10 18 -7 3 3 -2 9 -12 12 -14 6 -15 5 -6 -5z"/>
<path d="M2640 546 c0 -2 7 -7 16 -10 8 -3 12 -2 9 4 -6 10 -25 14 -25 6z"/>
<path d="M2700 546 c0 -2 7 -6 15 -10 8 -3 15 -1 15 4 0 6 -7 10 -15 10 -8 0
-15 -2 -15 -4z"/>
<path d="M2855 540 c-4 -6 -4 -14 -1 -17 3 -4 6 0 6 8 1 10 5 8 15 -5 8 -11
15 -15 15 -9 0 18 -27 36 -35 23z"/>
<path d="M2974 537 c-3 -9 -4 -22 -1 -29 3 -7 6 -3 6 10 1 13 5 20 11 17 6 -4
8 -16 5 -28 -5 -20 -5 -20 6 -3 9 14 8 21 -5 34 -14 14 -16 14 -22 -1z"/>
<path d="M3175 540 c3 -5 14 -10 23 -10 15 0 15 2 2 10 -20 13 -33 13 -25 0z"/>
<path d="M3460 541 c0 -5 9 -12 19 -16 12 -4 18 -12 14 -21 -8 -22 5 -16 18 9
6 12 8 19 4 14 -5 -4 -19 0 -32 8 -13 9 -23 11 -23 6z"/>
<path d="M4668 538 c-3 -7 -6 -17 -7 -23 -1 -5 -12 -15 -23 -21 -18 -10 -18
-12 -4 -17 10 -4 15 -3 12 2 -3 5 1 12 10 15 8 3 13 10 10 15 -3 5 2 15 11 22
15 12 16 12 10 -3 -3 -10 -2 -20 2 -22 5 -3 8 4 7 16 -1 24 -21 35 -28 16z"/>
<path d="M5211 532 c-5 -10 -13 -16 -18 -14 -4 2 -8 -1 -10 -7 -1 -7 0 -8 4
-1 2 5 9 8 14 4 5 -3 12 1 15 9 3 9 13 13 25 10 10 -3 19 -3 19 0 0 14 -41 13
-49 -1z"/>
<path d="M5316 541 c-3 -5 0 -14 8 -20 10 -9 15 -8 19 3 4 11 1 13 -10 9 -11
-4 -14 -2 -9 5 4 7 5 12 2 12 -3 0 -7 -4 -10 -9z"/>
<path d="M5390 545 c0 -5 5 -17 10 -25 5 -8 10 -10 10 -5 0 6 -5 17 -10 25 -5
8 -10 11 -10 5z"/>
<path d="M5475 541 c3 -6 -3 -14 -12 -20 -10 -6 -13 -11 -7 -11 12 0 34 20 34
32 0 4 -5 8 -11 8 -5 0 -8 -4 -4 -9z"/>
<path d="M6055 540 c3 -5 8 -10 11 -10 2 0 4 5 4 10 0 6 -5 10 -11 10 -5 0 -7
-4 -4 -10z"/>
<path d="M6115 539 c-3 -4 2 -6 10 -5 21 3 28 13 10 13 -9 0 -18 -4 -20 -8z"/>
<path d="M3219 528 c-1 -7 -1 -16 0 -20 0 -5 -6 -8 -14 -8 -8 0 -15 -5 -15
-10 0 -20 36 8 37 29 2 22 -6 30 -8 9z"/>
<path d="M3243 525 c-3 -9 -3 -19 1 -22 3 -4 6 1 6 10 0 8 6 18 13 20 9 4 9 6
-1 6 -7 1 -15 -6 -19 -14z"/>
<path d="M5275 530 c-3 -6 1 -7 9 -4 18 7 21 14 7 14 -6 0 -13 -4 -16 -10z"/>
<path d="M5530 530 c-9 -6 -10 -10 -3 -10 6 0 15 5 18 10 8 12 4 12 -15 0z"/>
<path d="M2200 520 c-9 -6 -10 -10 -3 -10 6 0 15 5 18 10 8 12 4 12 -15 0z"/>
<path d="M2230 521 c0 -6 4 -12 8 -15 5 -3 9 1 9 9 0 8 -4 15 -9 15 -4 0 -8
-4 -8 -9z"/>
<path d="M2550 520 c0 -5 5 -10 10 -10 6 0 10 5 10 10 0 6 -4 10 -10 10 -5 0
-10 -4 -10 -10z"/>
<path d="M2592 505 c-17 -19 -16 -20 3 -4 11 9 30 15 42 14 12 -1 20 2 17 6
-8 14 -45 5 -62 -16z"/>
<path d="M2683 518 c-4 -7 -8 -24 -8 -38 0 -14 -4 -32 -10 -40 -7 -13 -6 -13
7 -2 9 7 14 25 13 42 -2 20 3 34 14 40 9 5 11 10 4 10 -6 0 -15 -6 -20 -12z"/>
<path d="M2814 518 c-5 -7 -3 -8 6 -3 10 6 12 4 7 -8 -4 -11 -2 -14 9 -10 11
4 12 9 3 19 -14 17 -16 17 -25 2z"/>
<path d="M2916 514 c-11 -8 -16 -14 -10 -14 13 0 39 18 34 24 -3 2 -14 -2 -24
-10z"/>
<path d="M3151 520 c-9 -5 -4 -7 13 -7 29 0 32 2 13 10 -8 3 -20 2 -26 -3z"/>
<path d="M3274 518 c-3 -5 -3 -12 0 -15 3 -4 6 -1 6 5 0 7 5 12 11 12 5 0 7
-5 4 -10 -8 -13 20 -24 41 -16 12 5 14 9 5 20 -13 15 -58 18 -67 4z m61 -8 c3
-5 -3 -10 -15 -10 -12 0 -18 5 -15 10 3 6 10 10 15 10 5 0 12 -4 15 -10z"/>
<path d="M4005 507 c-30 -21 -30 -23 -13 -39 10 -10 18 -14 18 -10 0 4 -5 13
-11 19 -7 7 -3 15 15 26 24 16 25 16 46 -18 12 -19 25 -33 30 -30 5 3 11 0 13
-5 3 -6 4 -5 3 2 -2 7 -8 12 -14 11 -6 -2 -13 6 -17 16 -3 10 -13 25 -23 34
-15 14 -20 13 -47 -6z"/>
<path d="M4475 515 c4 -11 8 -25 8 -32 0 -7 4 -10 9 -7 4 3 3 15 -3 27 -16 30
-24 37 -14 12z"/>
<path d="M4582 510 c12 -19 28 -27 28 -14 0 7 -27 34 -34 34 -4 0 -1 -9 6 -20z"/>
<path d="M4810 525 c0 -8 29 -12 39 -5 9 5 4 8 -13 8 -14 0 -26 -2 -26 -3z"/>
<path d="M4956 518 c3 -4 0 -8 -7 -8 -7 0 -10 -3 -6 -6 3 -3 16 1 28 9 22 16
22 16 1 14 -11 0 -18 -5 -16 -9z"/>
<path d="M5042 516 c7 -8 15 -12 17 -11 5 6 -10 25 -20 25 -5 0 -4 -6 3 -14z"/>
<path d="M5150 520 c0 -5 5 -10 11 -10 5 0 7 5 4 10 -3 6 -8 10 -11 10 -2 0
-4 -4 -4 -10z"/>
<path d="M6010 520 c0 -5 5 -10 11 -10 5 0 7 5 4 10 -3 6 -8 10 -11 10 -2 0
-4 -4 -4 -10z"/>
<path d="M6076 513 c-6 -14 -5 -15 5 -6 7 7 10 15 7 18 -3 3 -9 -2 -12 -12z"/>
<path d="M3025 507 c-15 -12 -16 -15 -4 -22 8 -5 11 -5 7 0 -4 4 0 14 10 21
23 18 11 18 -13 1z"/>
<path d="M4272 504 c-7 -8 -8 -14 -3 -14 10 0 25 19 20 25 -2 1 -10 -3 -17
-11z"/>
<path d="M4990 509 c-12 -8 -10 -9 9 -4 17 5 22 4 16 -5 -5 -9 -4 -11 4 -6 6
4 9 12 6 17 -8 12 -16 11 -35 -2z"/>
<path d="M5073 505 c0 -8 4 -12 9 -9 5 3 6 10 3 15 -9 13 -12 11 -12 -6z"/>
<path d="M5733 505 c0 -8 4 -12 9 -9 5 3 6 10 3 15 -9 13 -12 11 -12 -6z"/>
<path d="M2090 500 c0 -5 5 -10 11 -10 5 0 7 5 4 10 -3 6 -8 10 -11 10 -2 0
-4 -4 -4 -10z"/>
<path d="M2130 499 c0 -5 5 -7 10 -4 6 3 10 8 10 11 0 2 -4 4 -10 4 -5 0 -10
-5 -10 -11z"/>
<path d="M3119 503 c0 -5 -2 -16 -4 -25 -2 -10 2 -21 7 -25 7 -4 8 -1 3 7 -6
10 -3 12 11 7 17 -6 17 -6 3 5 -9 7 -14 19 -12 26 3 6 2 12 -1 12 -3 0 -6 -3
-7 -7z"/>
<path d="M3359 493 c-13 -16 -12 -17 4 -4 15 12 17 11 18 -10 1 -19 2 -20 6
-5 7 27 -11 40 -28 19z"/>
<path d="M3526 497 c4 -12 2 -17 -6 -15 -7 2 -15 -4 -17 -12 -4 -13 -3 -13 6
0 6 8 11 11 11 6 0 -6 5 -5 12 2 9 9 9 15 -1 25 -10 10 -11 8 -5 -6z"/>
<path d="M3639 503 c0 -5 -2 -16 -4 -26 -2 -11 -1 -16 3 -13 8 8 14 46 7 46
-3 0 -5 -3 -6 -7z"/>
<path d="M3802 495 c-7 -8 -10 -15 -5 -15 4 0 0 -6 -9 -12 -12 -10 -13 -18 -7
-33 9 -19 9 -18 5 3 -2 12 -1 22 4 22 4 0 15 11 24 25 18 27 9 34 -12 10z"/>
<path d="M3845 500 c3 -5 8 -10 11 -10 2 0 4 5 4 10 0 6 -5 10 -11 10 -5 0 -7
-4 -4 -10z"/>
<path d="M4202 495 c-7 -8 -9 -15 -4 -15 5 0 15 7 22 15 16 19 -1 19 -18 0z"/>
<path d="M4437 496 c-8 -8 -17 -12 -21 -9 -3 4 -6 1 -6 -5 0 -17 15 -15 31 4
12 15 14 14 20 -7 7 -23 7 -23 8 -2 1 28 -14 37 -32 19z"/>
<path d="M4808 503 c6 -2 9 -10 6 -15 -4 -7 -2 -8 5 -4 13 9 5 26 -12 25 -9 0
-8 -2 1 -6z"/>
<path d="M4852 505 c4 -4 0 -13 -8 -20 -15 -11 -15 -12 -1 -12 20 0 30 24 14
33 -7 4 -9 4 -5 -1z"/>
<path d="M4895 499 c-4 -6 -4 -13 -1 -16 3 -4 6 -1 6 6 0 7 5 9 12 5 7 -4 8
-3 4 4 -9 15 -13 15 -21 1z"/>
<path d="M5100 506 c0 -2 7 -7 16 -10 8 -3 12 -2 9 4 -6 10 -25 14 -25 6z"/>
<path d="M5215 501 c-3 -5 -2 -12 3 -15 5 -3 9 1 9 9 0 17 -3 19 -12 6z"/>
<path d="M5353 503 c4 -3 1 -13 -6 -22 -11 -14 -10 -14 6 -2 20 15 22 31 5 31
-6 0 -8 -3 -5 -7z"/>
<path d="M5895 500 c3 -5 8 -10 11 -10 2 0 4 5 4 10 0 6 -5 10 -11 10 -5 0 -7
-4 -4 -10z"/>
<path d="M2455 480 c2 -27 10 -33 12 -10 1 11 -2 22 -6 24 -4 3 -7 -4 -6 -14z"/>
<path d="M2495 489 c-4 -6 -5 -12 -2 -15 2 -3 7 2 10 11 7 17 1 20 -8 4z"/>
<path d="M2549 483 c-13 -16 -12 -17 4 -4 9 7 17 15 17 17 0 8 -8 3 -21 -13z"/>
<path d="M2609 483 c-13 -16 -12 -17 4 -4 16 13 21 21 13 21 -2 0 -10 -8 -17
-17z"/>
<path d="M2794 486 c1 -8 5 -18 8 -22 4 -3 5 1 4 10 -1 8 -5 18 -8 22 -4 3 -5
-1 -4 -10z"/>
<path d="M3590 491 c0 -10 19 -25 25 -20 1 2 -3 10 -11 17 -8 7 -14 8 -14 3z"/>
<path d="M3873 481 c0 -11 5 -18 9 -15 4 3 5 11 1 19 -7 21 -12 19 -10 -4z"/>
<path d="M4031 492 c-1 -8 -6 -10 -13 -6 -10 5 -10 4 -1 -6 15 -16 28 -8 20
12 -4 11 -6 11 -6 0z"/>
<path d="M4143 493 c-15 -5 -17 -29 -4 -37 5 -3 15 2 22 12 13 15 12 16 -3 3
-12 -9 -18 -10 -18 -2 0 6 10 16 23 21 12 5 15 9 7 9 -8 -1 -21 -3 -27 -6z"/>
<path d="M4342 480 c0 -14 2 -19 5 -12 2 6 2 18 0 25 -3 6 -5 1 -5 -13z"/>
<path d="M4374 476 c1 -11 9 -20 19 -22 9 -1 15 2 11 7 -3 5 -9 7 -14 4 -5 -3
-10 3 -13 12 -3 15 -4 15 -3 -1z"/>
<path d="M5515 489 c-4 -6 -5 -12 -2 -15 2 -3 7 2 10 11 7 17 1 20 -8 4z"/>
<path d="M2716 481 c-3 -4 6 -7 19 -7 14 0 22 2 19 5 -8 8 -34 10 -38 2z"/>
<path d="M2914 451 c0 -22 4 -37 7 -35 7 4 4 62 -3 70 -3 2 -5 -13 -4 -35z"/>
<path d="M2961 472 c-7 -13 -6 -19 2 -19 7 0 13 9 13 19 0 10 -1 18 -3 18 -1
0 -7 -8 -12 -18z"/>
<path d="M3220 480 c-9 -6 -10 -10 -3 -10 6 0 15 5 18 10 8 12 4 12 -15 0z"/>
<path d="M3251 487 c2 -2 11 -8 20 -15 12 -9 16 -9 16 1 0 7 -9 14 -20 14 -11
1 -18 1 -16 0z"/>
<path d="M3444 479 c-3 -6 -2 -15 4 -21 6 -6 12 -6 17 3 6 8 4 10 -5 4 -10 -6
-12 -4 -7 8 7 19 2 23 -9 6z"/>
<path d="M3564 475 c-4 -8 -10 -12 -15 -9 -5 3 -12 -2 -15 -10 -3 -9 -10 -13
-15 -10 -5 3 -9 0 -9 -5 0 -16 20 -13 26 3 3 8 14 13 25 11 10 -2 22 1 25 7 5
7 2 8 -6 3 -10 -6 -12 -4 -7 8 3 10 4 17 1 17 -2 0 -7 -7 -10 -15z"/>
<path d="M3730 480 c0 -5 5 -10 10 -10 6 0 10 5 10 10 0 6 -4 10 -10 10 -5 0
-10 -4 -10 -10z"/>
<path d="M3833 484 c4 -4 -1 -12 -10 -19 -13 -10 -14 -13 -2 -20 8 -5 10 -4 6
0 -4 5 2 14 14 20 20 11 20 12 3 19 -10 4 -15 4 -11 0z"/>
<path d="M4230 480 c0 -6 7 -13 15 -16 8 -4 12 -11 8 -17 -4 -6 -1 -7 7 -2 10
6 10 11 -3 20 -9 7 -14 15 -10 18 3 4 1 7 -5 7 -7 0 -12 -5 -12 -10z"/>
<path d="M4308 472 c9 -10 19 -17 21 -16 6 5 -20 34 -30 34 -5 0 -1 -8 9 -18z"/>
<path d="M4572 476 c7 -8 15 -12 17 -11 5 6 -10 25 -20 25 -5 0 -4 -6 3 -14z"/>
<path d="M4676 478 c3 -4 0 -8 -7 -8 -7 0 -10 -3 -6 -6 3 -3 16 1 28 9 22 16
22 16 1 14 -11 0 -18 -5 -16 -9z"/>
<path d="M4727 479 c7 -7 15 -10 18 -7 3 3 -2 9 -12 12 -14 6 -15 5 -6 -5z"/>
<path d="M4924 478 c-4 -6 -3 -8 4 -4 5 3 13 0 15 -6 3 -8 6 -6 6 5 1 19 -14
23 -25 5z"/>
<path d="M4975 480 c3 -5 8 -10 11 -10 2 0 4 5 4 10 0 6 -5 10 -11 10 -5 0 -7
-4 -4 -10z"/>
<path d="M5030 479 c0 -5 5 -7 10 -4 6 3 10 8 10 11 0 2 -4 4 -10 4 -5 0 -10
-5 -10 -11z"/>
<path d="M5176 473 c-6 -14 -5 -15 5 -6 7 7 10 15 7 18 -3 3 -9 -2 -12 -12z"/>
<path d="M5566 478 c3 -5 10 -6 15 -3 13 9 11 12 -6 12 -8 0 -12 -4 -9 -9z"/>
<path d="M5624 482 c4 -3 14 -7 22 -8 9 -1 13 0 10 4 -4 3 -14 7 -22 8 -9 1
-13 0 -10 -4z"/>
<path d="M3310 470 c-9 -6 -10 -10 -3 -10 6 0 15 5 18 10 8 12 4 12 -15 0z"/>
<path d="M3952 472 c2 -8 8 -14 13 -14 13 -1 34 -31 29 -40 -3 -5 0 -8 5 -8 6
0 11 3 11 8 -1 11 -40 58 -40 47 0 -5 -5 -3 -11 5 -7 10 -9 11 -7 2z"/>
<path d="M4280 468 c9 -7 14 -21 12 -30 -5 -25 4 -23 11 2 4 14 -1 23 -16 31
-19 9 -20 8 -7 -3z"/>
<path d="M4997 467 c-3 -8 1 -14 8 -14 7 0 11 6 8 14 -3 7 -6 13 -8 13 -2 0
-5 -6 -8 -13z"/>
<path d="M2253 455 c0 -8 4 -12 9 -9 5 3 6 10 3 15 -9 13 -12 11 -12 -6z"/>
<path d="M2828 463 c6 -2 18 -2 25 0 6 3 1 5 -13 5 -14 0 -19 -2 -12 -5z"/>
<path d="M3000 460 c-9 -6 -10 -10 -3 -10 6 0 15 5 18 10 8 12 4 12 -15 0z"/>
<path d="M3146 442 l-19 -27 24 22 c12 12 21 24 18 27 -2 2 -13 -8 -23 -22z"/>
<path d="M3333 457 c-4 -6 -1 -7 7 -2 10 6 12 4 6 -10 -5 -15 -4 -16 9 -5 8 7
15 16 15 20 0 10 -30 8 -37 -3z"/>
<path d="M3419 468 c-6 -22 -5 -39 3 -45 6 -3 8 -1 4 5 -3 5 0 13 6 15 10 4
10 6 0 6 -7 1 -10 6 -7 11 3 6 4 10 1 10 -3 0 -6 -1 -7 -2z"/>
<path d="M3476 453 c-6 -14 -5 -15 5 -6 7 7 10 15 7 18 -3 3 -9 -2 -12 -12z"/>
<path d="M3654 459 c-3 -6 -1 -16 5 -22 9 -9 11 -8 5 6 -5 13 -2 16 10 11 9
-3 16 -4 16 -1 0 11 -30 16 -36 6z"/>
<path d="M3895 461 c-6 -11 13 -26 22 -17 4 3 1 6 -6 6 -7 0 -9 5 -6 10 3 6 4
10 1 10 -3 0 -7 -4 -11 -9z"/>
<path d="M4177 463 c-3 -5 0 -17 4 -28 9 -18 9 -18 5 3 -3 16 1 22 14 22 13 0
17 -6 14 -22 -4 -21 -4 -21 5 -3 11 25 5 35 -19 35 -10 0 -21 -3 -23 -7z"/>
<path d="M4430 460 c-13 -8 -12 -10 3 -10 9 0 17 5 17 10 0 12 -1 12 -20 0z"/>
<path d="M4495 459 c-4 -6 -5 -12 -2 -15 2 -3 7 2 10 11 7 17 1 20 -8 4z"/>
<path d="M4551 447 c-13 -21 -12 -21 5 -5 10 10 16 20 13 22 -3 3 -11 -5 -18
-17z"/>
<path d="M4619 468 c-8 -27 -5 -36 9 -30 10 4 12 7 4 10 -7 2 -10 8 -6 13 3 5
3 9 0 9 -3 0 -6 -1 -7 -2z"/>
<path d="M4694 458 c-4 -7 -3 -8 4 -4 16 10 15 -6 0 -24 -11 -12 -10 -12 3 -2
9 6 19 8 24 4 4 -4 2 3 -4 16 -13 25 -17 27 -27 10z"/>
<path d="M4763 462 c-8 -5 -9 -13 -3 -22 8 -13 10 -12 10 3 0 11 4 15 12 11 7
-4 8 -3 4 4 -8 14 -8 14 -23 4z"/>
<path d="M4813 465 c4 -5 -2 -18 -13 -30 -16 -17 -17 -22 -5 -22 8 0 13 3 10
5 -3 3 2 13 11 23 12 14 13 18 2 25 -7 4 -10 3 -5 -1z"/>
<path d="M5040 460 c-9 -6 -10 -10 -3 -10 6 0 15 5 18 10 8 12 4 12 -15 0z"/>
<path d="M5433 453 c0 -9 4 -10 14 -2 7 6 13 12 13 14 0 1 -6 2 -13 2 -8 0
-14 -6 -14 -14z"/>
<path d="M5710 465 c0 -7 30 -13 34 -7 3 4 -4 9 -15 9 -10 1 -19 0 -19 -2z"/>
<path d="M5775 459 c-3 -4 2 -6 10 -5 21 3 28 13 10 13 -9 0 -18 -4 -20 -8z"/>
<path d="M2196 447 c3 -10 9 -15 12 -12 3 3 0 11 -7 18 -10 9 -11 8 -5 -6z"/>
<path d="M2774 440 c0 -13 4 -16 10 -10 7 7 7 13 0 20 -6 6 -10 3 -10 -10z"/>
<path d="M3053 447 c0 -7 9 -14 19 -14 10 -1 18 3 18 9 0 6 -3 8 -7 5 -3 -4
-11 -2 -18 3 -8 7 -12 6 -12 -3z"/>
<path d="M3710 451 c0 -6 4 -13 10 -16 6 -3 7 1 4 9 -7 18 -14 21 -14 7z"/>
<path d="M3750 451 c0 -6 4 -13 10 -16 6 -3 7 1 4 9 -7 18 -14 21 -14 7z"/>
<path d="M4515 451 c-3 -5 0 -13 6 -17 7 -4 9 -3 5 4 -3 5 0 13 6 15 9 4 10 6
1 6 -6 1 -14 -3 -18 -8z"/>
<path d="M4838 436 c-13 -18 -14 -23 -2 -23 8 0 12 3 9 5 -3 3 0 11 7 19 6 7
9 15 7 17 -2 2 -12 -6 -21 -18z"/>
<path d="M5199 458 c-5 -18 -6 -38 -1 -34 7 8 12 36 6 36 -2 0 -4 -1 -5 -2z"/>
<path d="M2353 435 c0 -8 4 -12 9 -9 5 3 6 10 3 15 -9 13 -12 11 -12 -6z"/>
<path d="M3627 431 c-3 -13 -1 -18 9 -14 7 2 10 11 7 19 -7 19 -10 18 -16 -5z"/>
<path d="M4020 442 c0 -5 7 -9 15 -9 8 0 15 4 15 9 0 4 -7 8 -15 8 -8 0 -15
-4 -15 -8z"/>
<path d="M4120 436 c0 -8 4 -17 9 -20 5 -4 7 3 4 14 -6 23 -13 26 -13 6z"/>
<path d="M4353 443 c4 -3 3 -11 -3 -17 -6 -8 -3 -12 9 -12 12 0 17 6 13 18 -2
10 -9 18 -15 18 -6 0 -7 -3 -4 -7z"/>
<path d="M4467 439 c7 -9 10 -19 6 -22 -3 -4 -1 -7 5 -7 17 0 15 16 -5 31 -16
12 -17 12 -6 -2z"/>
<path d="M4650 446 c0 -2 7 -7 16 -10 8 -3 12 -2 9 4 -6 10 -25 14 -25 6z"/>
<path d="M4920 445 c0 -2 6 -8 13 -14 10 -8 14 -7 14 2 0 8 -6 14 -14 14 -7 0
-13 -1 -13 -2z"/>
<path d="M5070 439 c0 -5 5 -7 10 -4 6 3 10 8 10 11 0 2 -4 4 -10 4 -5 0 -10
-5 -10 -11z"/>
<path d="M5126 442 c-3 -5 1 -9 9 -9 8 0 12 4 9 9 -3 4 -7 8 -9 8 -2 0 -6 -4
-9 -8z"/>
<path d="M6345 440 c-3 -6 1 -7 9 -4 18 7 21 14 7 14 -6 0 -13 -4 -16 -10z"/>
<path d="M2453 425 c0 -8 4 -12 9 -9 5 3 6 10 3 15 -9 13 -12 11 -12 -6z"/>
<path d="M3680 436 c0 -2 7 -7 16 -10 8 -3 12 -2 9 4 -6 10 -25 14 -25 6z"/>
<path d="M3839 433 c-1 -5 -1 -12 0 -17 1 -5 -6 -5 -16 -2 -14 6 -15 4 -6 -4
8 -9 16 -9 30 -1 10 6 13 11 5 11 -7 0 -10 5 -7 10 3 6 4 10 1 10 -3 0 -7 -3
-7 -7z"/>
<path d="M2991 413 c7 -12 15 -20 18 -17 3 2 -3 12 -13 22 -17 16 -18 16 -5
-5z"/>
<path d="M3265 419 c-3 -4 2 -6 10 -5 21 3 28 13 10 13 -9 0 -18 -4 -20 -8z"/>
<path d="M3587 415 c3 -8 9 -12 14 -9 12 7 11 11 -5 17 -10 4 -13 1 -9 -8z"/>
<path d="M4155 421 c-3 -5 -2 -12 3 -15 5 -3 9 1 9 9 0 17 -3 19 -12 6z"/>
<path d="M4395 421 c-3 -5 0 -13 6 -17 7 -4 9 -3 5 4 -3 5 0 13 6 15 9 4 10 6
1 6 -6 1 -14 -3 -18 -8z"/>
<path d="M4865 419 c-3 -4 2 -6 10 -5 21 3 28 13 10 13 -9 0 -18 -4 -20 -8z"/>
<path d="M5435 419 c-3 -4 2 -6 10 -5 21 3 28 13 10 13 -9 0 -18 -4 -20 -8z"/>
<path d="M3050 417 c0 -2 6 -10 14 -16 11 -9 16 -9 22 1 4 7 4 10 -1 6 -4 -4
-14 -3 -22 3 -7 6 -13 9 -13 6z"/>
<path d="M3209 403 c-13 -16 -12 -17 4 -4 9 7 17 15 17 17 0 8 -8 3 -21 -13z"/>
<path d="M3715 409 c-4 -6 -5 -12 -2 -15 2 -3 7 2 10 11 7 17 1 20 -8 4z"/>
<path d="M4554 385 c0 -19 3 -32 5 -29 8 7 9 54 2 59 -4 2 -7 -12 -7 -30z"/>
<path d="M4673 405 c0 -8 4 -12 9 -9 5 3 6 10 3 15 -9 13 -12 11 -12 -6z"/>
<path d="M4735 409 c-4 -6 -5 -12 -2 -15 2 -3 7 2 10 11 7 17 1 20 -8 4z"/>
<path d="M4995 409 c-4 -6 -5 -12 -2 -15 2 -3 7 2 10 11 7 17 1 20 -8 4z"/>
<path d="M2734 396 c1 -8 5 -18 8 -22 4 -3 5 1 4 10 -1 8 -5 18 -8 22 -4 3 -5
-1 -4 -10z"/>
<path d="M3030 400 c0 -5 5 -10 11 -10 5 0 7 5 4 10 -3 6 -8 10 -11 10 -2 0
-4 -4 -4 -10z"/>
<path d="M3150 400 c0 -5 9 -8 20 -7 21 1 18 10 -5 13 -8 1 -15 -2 -15 -6z"/>
<path d="M3313 390 c1 -21 10 -18 13 5 1 8 -2 15 -6 15 -5 0 -8 -9 -7 -20z"/>
<path d="M3364 398 c-3 -4 5 -5 17 -3 30 6 36 14 9 12 -12 -1 -24 -5 -26 -9z"/>
<path d="M3766 398 c4 -5 9 -7 12 -4 3 3 15 -2 26 -11 21 -18 21 -18 3 3 -16
20 -52 30 -41 12z"/>
<path d="M3886 402 c-3 -5 1 -9 9 -9 8 0 15 4 15 9 0 4 -4 8 -9 8 -6 0 -12 -4
-15 -8z"/>
<path d="M4193 386 l-18 -21 24 20 c13 11 25 19 28 17 3 -2 7 -2 9 1 2 2 -3 4
-11 4 -8 0 -23 -10 -32 -21z"/>
<path d="M4253 395 c0 -8 4 -12 9 -9 5 3 6 10 3 15 -9 13 -12 11 -12 -6z"/>
<path d="M5356 393 c-6 -14 -5 -15 5 -6 7 7 10 15 7 18 -3 3 -9 -2 -12 -12z"/>
<path d="M4431 387 c-8 -10 -7 -14 2 -14 8 0 14 6 14 14 0 7 -1 13 -2 13 -2 0
-8 -6 -14 -13z"/>
<path d="M4474 385 c1 -8 8 -21 16 -28 12 -10 12 -9 2 4 -6 9 -9 18 -6 21 3 3
1 9 -4 12 -6 3 -9 -1 -8 -9z"/>
<path d="M2855 380 c3 -5 8 -10 11 -10 2 0 4 5 4 10 0 6 -5 10 -11 10 -5 0 -7
-4 -4 -10z"/>
<path d="M3641 376 c-9 -11 -9 -16 1 -22 7 -4 10 -4 6 1 -4 4 -3 14 3 22 6 7
9 13 6 13 -2 0 -10 -6 -16 -14z"/>
<path d="M3860 386 c0 -2 8 -10 18 -17 15 -13 16 -12 3 4 -13 16 -21 21 -21
13z"/>
<path d="M4065 379 c-3 -4 2 -6 10 -5 21 3 28 13 10 13 -9 0 -18 -4 -20 -8z"/>
<path d="M4114 364 c1 -13 5 -26 8 -29 4 -4 5 1 4 12 -2 10 0 23 5 29 5 6 4
11 -5 11 -7 0 -12 -10 -12 -23z"/>
<path d="M4349 377 c6 -8 7 -18 3 -22 -4 -5 -1 -5 6 -1 10 6 10 11 1 22 -6 8
-14 14 -16 14 -3 0 0 -6 6 -13z"/>
<path d="M5130 380 c0 -5 5 -10 11 -10 5 0 7 5 4 10 -3 6 -8 10 -11 10 -2 0
-4 -4 -4 -10z"/>
<path d="M5236 382 c-3 -5 1 -9 9 -9 8 0 12 4 9 9 -3 4 -7 8 -9 8 -2 0 -6 -4
-9 -8z"/>
<path d="M4022 364 c10 -10 20 -16 22 -13 3 3 -5 11 -17 18 -21 13 -21 12 -5
-5z"/>
<path d="M4954 366 c1 -8 5 -18 8 -22 4 -3 5 1 4 10 -1 8 -5 18 -8 22 -4 3 -5
-1 -4 -10z"/>
<path d="M2960 355 c-7 -9 -11 -17 -9 -20 3 -2 10 5 17 15 14 24 10 26 -8 5z"/>
<path d="M3033 355 c0 -8 4 -12 9 -9 4 3 8 9 8 15 0 5 -4 9 -8 9 -5 0 -9 -7
-9 -15z"/>
<path d="M3136 358 c3 -5 10 -6 15 -3 13 9 11 12 -6 12 -8 0 -12 -4 -9 -9z"/>
<path d="M3720 360 c-9 -6 -10 -10 -3 -10 6 0 15 5 18 10 8 12 4 12 -15 0z"/>
<path d="M3960 360 c-9 -6 -10 -10 -3 -10 6 0 15 5 18 10 8 12 4 12 -15 0z"/>
<path d="M4267 359 c7 -7 15 -10 18 -7 3 3 -2 9 -12 12 -14 6 -15 5 -6 -5z"/>
<path d="M5020 366 c0 -2 8 -10 18 -17 15 -13 16 -12 3 4 -13 16 -21 21 -21
13z"/>
<path d="M3096 341 c-3 -4 4 -17 17 -27 22 -19 22 -19 4 2 -9 11 -14 24 -10
27 3 4 4 7 0 7 -3 0 -8 -4 -11 -9z"/>
<path d="M3234 342 c4 -3 14 -7 22 -8 9 -1 13 0 10 4 -4 3 -14 7 -22 8 -9 1
-13 0 -10 -4z"/>
<path d="M3535 340 c3 -5 8 -10 11 -10 2 0 4 5 4 10 0 6 -5 10 -11 10 -5 0 -7
-4 -4 -10z"/>
<path d="M3610 339 c0 -5 5 -7 10 -4 6 3 10 8 10 11 0 2 -4 4 -10 4 -5 0 -10
-5 -10 -11z"/>
<path d="M4894 336 c1 -8 5 -18 8 -22 4 -3 5 1 4 10 -1 8 -5 18 -8 22 -4 3 -5
-1 -4 -10z"/>
<path d="M3155 331 c-3 -5 -2 -12 3 -15 5 -3 9 1 9 9 0 17 -3 19 -12 6z"/>
<path d="M4585 320 c-3 -6 1 -7 9 -4 18 7 21 14 7 14 -6 0 -13 -4 -16 -10z"/>
<path d="M3675 301 c-3 -5 -2 -12 3 -15 5 -3 9 1 9 9 0 17 -3 19 -12 6z"/>
<path d="M3870 300 c0 -5 5 -10 11 -10 5 0 7 5 4 10 -3 6 -8 10 -11 10 -2 0
-4 -4 -4 -10z"/>
<path d="M3915 300 c-3 -5 -1 -10 4 -10 6 0 11 5 11 10 0 6 -2 10 -4 10 -3 0
-8 -4 -11 -10z"/>
<path d="M3990 305 c0 -5 5 -17 10 -25 5 -8 10 -10 10 -5 0 6 -5 17 -10 25 -5
8 -10 11 -10 5z"/>
<path d="M4353 295 c0 -8 4 -12 9 -9 5 3 6 10 3 15 -9 13 -12 11 -12 -6z"/>
<path d="M4393 285 c0 -8 4 -12 9 -9 5 3 6 10 3 15 -9 13 -12 11 -12 -6z"/>
</g>
</svg>
